

<svg
   version="1.1"
   id="svg9956"
   width="1em"
   height="1em"
   viewBox="0 0 1000 289.33334"
   xmlns="http://www.w3.org/2000/svg"
  >
  <defs
     id="defs9960" />
  <g
     id="g9962">
    <path
       
       d="M 41.628947,282.86414 C 36.471682,280.00364 30.128771,277.26489 27.533591,276.77802 24.017454,276.1184 20.39978,273.41516 13.336648,266.16961 3.0633032,255.63094 3.0504172,255.59917 1.1411832,236.10032 0.05551117,225.01245 0.12762117,224.55581 4.4705612,215.01658 c 2.441496,-5.36271 6.0294768,-11.66271 7.9732888,-14 4.547682,-5.46823 13.527356,-11.58293 17.009981,-11.58293 1.492384,0 3.964236,-1.17508 5.493007,-2.61128 2.858357,-2.6853 36.550948,-10.72206 44.95014,-10.72206 2.27223,0 8.25198,-2.1 13.28834,-4.66666 6.46755,-3.29604 10.928472,-4.66667 15.188412,-4.66667 5.31743,0 6.19252,-0.42377 7.39248,-3.57992 0.7486,-1.96896 1.67556,-8.11896 2.05991,-13.66667 0.80912,-11.67881 -1.76428,-18.61103 -7.48699,-20.16841 -11.989292,-3.26275 -18.010192,-4.07548 -24.044262,-3.24558 -4.13022,0.56805 -7.35353,0.38033 -8.40135,-0.48929 -0.93505,-0.77603 -6.495384,-1.81087 -12.356295,-2.29965 -10.114203,-0.84349 -10.856063,-0.71678 -14.585664,2.49129 l -3.929463,3.37998 2.935139,6.04141 c 2.543161,5.23459 2.775327,7.02332 1.738463,13.39405 -2.383638,14.64563 -5.365436,17.08256 -19.885391,16.25168 C 13.706834,163.83993 8.2640502,158.49053 6.7595592,140.25495 5.4067322,123.85767 7.1706052,120.65395 26.973426,103.5406 41.819827,90.710518 44.172838,89.433638 52.969502,89.433638 c 10.337422,0 26.034096,-2.42599 32.304496,-4.99281 4.25449,-1.7416 6.44879,-1.78461 15.915442,-0.31195 21.84886,3.39886 39.47003,15.5185 48.51514,33.368142 6.75657,13.33347 8.82563,39.12159 5.82517,72.60329 -0.78861,8.8 -1.36872,19.9 -1.28913,24.66667 0.0796,4.76667 -0.56183,11.44924 -1.42539,14.85018 -1.42886,5.62728 -1.28102,6.76669 1.64356,12.66666 1.76752,3.56574 4.28723,6.6817 5.59936,6.92435 1.31842,0.24381 4.69288,-1.64324 7.54298,-4.21812 5.01106,-4.5272 5.39704,-4.63879 13.6143,-3.93621 4.65136,0.39769 13.15882,1.4512 18.90543,2.34113 8.48408,1.31387 10.7754,1.29108 12.18768,-0.1212 3.07581,-3.07581 8.4522,-43.76678 6.36093,-48.14244 -0.62149,-1.3004 -1.04308,-18.86435 -0.93688,-39.03102 0.17686,-33.57914 -0.0203,-37.09536 -2.34042,-41.75778 -2.34064,-4.70348 -2.38527,-5.59694 -0.58614,-11.73437 1.38218,-4.715042 1.59054,-7.935812 0.71784,-11.096452 -0.78086,-2.82803 -0.74116,-5.73786 0.1088,-7.97339 1.0935,-2.87609 0.52898,-5.52542 -3.08518,-14.47911 l -4.42359,-10.9589 -6.19469,0.39685 c -3.4071,0.21826 -7.43804,-0.26857 -8.95768,-1.08186 -2.02343,-1.0829 -3.96371,-1.08243 -7.24887,0.002 -4.17913,1.37924 -5.11331,1.07831 -13.66144,-4.40091 -12.63024,-8.09571 -16.38876,-12.81936 -16.38876,-20.59712 0,-7.60651 3.82791,-15.77921 10.71415,-22.875 6.6123,-6.81353 10.39296,-7.7556 19.54576,-4.87043 9.30116,2.93193 44.25382,6.33354 49.53018,4.8203 2.95484,-0.84744 4.93506,-0.52349 7.92872,1.29706 5.18019,3.15026 5.39336,3.55585 8.32919,15.84774 1.3704,5.73765 3.71992,13.66375 5.22115,17.61355 3.2082,8.4409 3.42078,13.55737 0.86436,20.80304 -1.02656,2.90961 -2.29728,10.03505 -2.82383,15.83431 -0.52653,5.79925 -1.78661,12.56738 -2.80017,15.04027 -1.29194,3.15206 -1.84284,10.592652 -1.84284,24.889462 0,17.5304 0.37993,21.27963 2.70636,26.70696 2.60073,6.0673 2.61937,6.57551 0.4777,13.02347 -1.93136,5.81477 -1.99877,7.60668 -0.50542,13.43341 1.17744,4.59412 1.67076,15.81244 1.5576,35.42042 -0.10187,17.65199 0.38318,30.07655 1.2603,32.28169 1.01744,2.55796 3.17611,4.18127 7.53554,5.66667 8.66752,2.95332 11.67654,2.63489 19.97689,-2.11408 l 7.33357,-4.19585 19.8989,0.76476 19.89889,0.76476 1.33539,-3.51234 c 0.73446,-1.93178 2.5052,-11.14476 3.93497,-20.47325 1.42977,-9.32851 2.94347,-17.85708 3.36379,-18.95239 0.4203,-1.09532 0.1308,-3.17505 -0.64343,-4.62165 -1.66031,-3.1023 -2.38823,-60.48107 -0.88453,-69.72325 0.81317,-4.99806 0.46056,-7.20202 -1.88915,-11.80784 -2.48587,-4.8727 -2.70716,-6.52676 -1.58607,-11.85496 0.71658,-3.405682 1.29706,-10.915152 1.28994,-16.687702 -0.0107,-8.5363 -0.74039,-12.25965 -3.90986,-19.94569 -4.29592,-10.41771 -5.80545,-12.01612 -9.48714,-10.04574 -3.72039,1.99109 -16.72218,-0.002 -18.73218,-2.87207 -0.91546,-1.307 -4.08876,-3.02915 -7.05177,-3.82701 -13.86715,-3.73404 -17.97208,-18.73555 -9.54696,-34.88948 5.72577,-10.97832 10.741,-13.93900003 18.78865,-11.09168 9.20868,3.25811 16.94018,4.82156 29.54468,5.97449 6.6,0.6037 12.6,1.185 13.33334,1.29179 0.73333,0.10678 3.74874,-0.22699 6.7009,-0.74171 8.17223,-1.42486 10.6743,1.41153 14.681,16.64264 1.83266,6.96667 4.61122,15.86614 6.17458,19.77661 2.53889,6.35057 2.66725,7.77462 1.20182,13.33333 -0.90236,3.42287 -2.21637,9.8234 -2.92004,14.2234 -0.70365,4.4 -1.91857,11.3 -2.69981,15.33333 -4.40065,22.719212 -4.46284,42.111222 -0.1846,57.566952 1.89588,6.84917 1.89843,8.16276 0.0268,13.84793 -1.80599,5.48579 -1.83016,6.95447 -0.19088,11.60068 1.03231,2.92584 1.91908,9.89428 1.97063,15.48542 0.0516,5.59113 0.52309,11.25476 1.04789,12.58584 0.5248,1.33108 -0.20707,9.19674 -1.62639,17.47926 -2.5373,14.80659 -2.5381,15.14611 -0.0479,20.24653 3.67149,7.5199 9.59154,10.19092 20.53268,9.26396 29.16818,-2.47123 29.19864,-2.47151 32.51004,-0.30179 1.7749,1.16296 4.26776,4.8394 5.53968,8.16985 2.18081,5.71036 2.18369,6.39284 0.0505,11.97838 -5.57444,14.59644 -7.27293,14.9808 -63.43361,14.35442 -13.56667,-0.1513 -26.76667,-0.21754 -29.33334,-0.1472 -6.26212,0.17163 -24.55885,-2.16085 -26.53608,-3.38285 -0.86965,-0.53748 -2.9048,-0.1188 -4.52256,0.93028 -2.68469,1.74105 -17.09077,3.91711 -26.94136,4.06951 -3.52064,0.0545 -41.49693,-0.1048 -56,-0.23494 -5.43166,-0.0487 -20.56926,-1.96045 -28.24109,-3.56658 -2.53892,-0.53154 -6.82,-0.0768 -10.66667,1.13309 -3.53406,1.11155 -11.36362,2.3866 -17.39902,2.83345 -13.26006,0.98175 -17.93439,-0.61184 -27.19051,-9.26985 -3.51368,-3.28661 -7.59355,-5.97567 -9.06638,-5.97567 -2.68921,0 -17.32358,7.41726 -24.74138,12.53987 -3.34765,2.31183 -6.90911,2.88472 -22.666672,3.64613 -11.61581,0.56128 -20.904224,1.70687 -24.529272,3.02534 -3.208865,1.1671 -6.508865,2.11406 -7.333333,2.10437 -0.824467,-0.009 -5.718611,-2.35804 -10.875876,-5.21855 z m 31.376845,-29.27608 c 3.299996,-0.75438 8.477916,-1.39774 11.506476,-1.42968 5.07971,-0.0536 5.92947,-0.61832 10.96432,-7.28694 3.09833,-4.10371 9.724662,-10.17851 15.327472,-14.05174 8.60449,-5.94828 9.97447,-7.45713 10.68766,-11.77112 1.39055,-8.41119 0.9356,-16.98464 -1.04503,-19.69332 -1.86786,-2.55444 -2.04539,-2.5488 -13.66667,0.43419 -6.47582,1.66222 -17.695212,3.61506 -24.931972,4.33964 -11.224722,1.12386 -15.221424,2.24378 -27.204956,7.62317 -12.861514,5.77351 -14.252537,6.75772 -16.479644,11.66024 -5.933417,13.0612 -1.744749,23.01235 12.210196,29.00814 8.801083,3.78142 10.756218,3.88226 22.632148,1.16742 z m 505.999998,27.19736 c -17.09797,-4.08174 -24.73932,-7.30913 -29.45218,-12.43938 l -4.11886,-4.48364 -14.49756,9.55501 -14.49754,9.55501 -16.71694,-0.71574 c -9.1943,-0.39367 -19.83369,-0.7073 -23.64308,-0.69696 -8.1675,0.0221 -12.63878,-2.06504 -19.31489,-9.01618 -7.55765,-7.869 -19.04135,-27.19066 -23.84268,-40.11605 l -4.33147,-11.66051 -0.93238,-42.66667 c -0.5128,-23.46666 -1.26927,-43.56666 -1.68103,-44.66666 -0.41176,-1.1 -1.1102,-3.65 -1.55209,-5.66667 -0.73891,-3.37216 -1.31175,-3.66667 -7.13216,-3.66667 -7.73874,0 -14.1976,-3.27193 -19.57556,-9.91658 -3.75772,-4.64277 -4.01168,-5.66143 -3.86606,-15.507032 0.18751,-12.67749 2.14974,-16.35876 10.74676,-20.16163 5.71894,-2.52976 6.4592,-2.56204 14.17608,-0.61815 5.66787,1.42774 8.64616,1.6326 9.801,0.67417 2.93668,-2.43723 13.07715,-1.70782 19.50296,1.40286 8.54556,4.13684 16.44762,12.21465 18.43374,18.84374 1.34433,4.487002 1.31685,6.962092 -0.14519,13.075322 -0.99188,4.14735 -2.04884,11.82179 -2.3488,17.05431 -0.47299,8.25082 -0.0839,10.4245 2.93172,16.37541 l 3.47711,6.86173 -2.77599,6.27559 c -4.50969,10.1949 -5.6394,17.13554 -3.47433,21.3455 1.2375,2.40635 2.19872,11.23742 2.85438,26.22463 l 0.98858,22.59652 6.69248,7.07632 c 7.61674,8.05358 12.77838,10.1274 23.62732,9.49287 l 7.33333,-0.42891 12.31531,-15.33333 c 6.77341,-8.43333 14.3656,-19.23334 16.87153,-24 4.90268,-9.32567 9.11533,-21.92006 7.77895,-23.25643 -0.45188,-0.45189 -1.2714,-8.45407 -1.82112,-17.7826 -0.54974,-9.32853 -1.39642,-18.88467 -1.88151,-21.23585 -0.67055,-3.25 -0.20845,-5.13116 1.92743,-7.84648 3.14625,-3.99982 3.66004,-8.88355 1.14274,-10.86207 -3.18162,-2.50066 -18.88129,-7.01657 -24.39326,-7.01657 -3.04818,0 -7.58167,-0.68047 -10.07444,-1.51215 -5.01035,-1.67164 -12.76546,-8.35486 -13.92154,-11.99735 -1.14586,-3.61027 3.72511,-11.818152 12.28811,-20.706222 l 7.77965,-8.07497 15.99407,0.43598 c 18.65397,0.50849 43.39465,3.70809 47.23956,6.10927 6.00765,3.75184 8.67157,21.084372 7.79137,50.693642 -0.52502,17.6614 -1.22146,23.57986 -3.72824,31.68296 -2.81278,9.09229 -2.94661,10.75752 -1.52894,19.02473 0.85452,4.98315 1.55366,19.23529 1.55366,31.67145 0,26.04733 -0.35606,25.31581 13.54916,27.83673 11.0332,2.00025 16.9273,4.8287 18.45932,8.85824 1.5408,4.05262 1.73035,14.02146 0.30444,16.01146 -0.97784,1.36468 -18.45348,14.30395 -20.97958,15.53367 -0.73334,0.35697 -6.73334,-0.64007 -13.33334,-2.21567 z m 305.33334,-0.1904 c -2.2,-1.21552 -5.86411,-3.83034 -8.14246,-5.8107 -2.8715,-2.49596 -6.26112,-3.8516 -11.0479,-4.41852 -12.84108,-1.52084 -29.59288,-13.47819 -31.4744,-22.46627 -0.51419,-2.45624 -5.2992,-12.86588 -10.63338,-23.13255 -12.57102,-24.19539 -14.80412,-32.91988 -14.28446,-55.80808 0.35274,-15.53641 0.77269,-18.09569 4.48501,-27.33333 2.25272,-5.60555 5.49907,-14.69192 7.21411,-20.19192 3.95697,-12.68961 9.61882,-21.624462 16.42616,-25.921742 2.93846,-1.85497 5.94638,-4.50074 6.68426,-5.87949 0.7379,-1.37875 6.6137,-6.09936 13.05734,-10.49024 10.57658,-7.20718 12.56126,-8.05964 20.41193,-8.76744 4.78292,-0.43121 10.48292,-1.71567 12.66667,-2.85435 2.8923,-1.50814 8.00296,-2.07255 18.82076,-2.07853 13.76562,-0.008 15.5186,0.29405 24,4.13014 24.69793,11.17072 31.10226,14.75356 39.96293,22.35683 7.74129,6.64277 10.21839,9.788582 13.50629,17.153062 5.5764,12.49027 8.3471,21.06016 8.3471,25.81785 0,2.22175 1.3051,7.07325 2.9002,10.78111 2.6039,6.0529 2.7329,7.37202 1.263,12.91384 -2.9123,10.97985 -7.6304,19.63021 -12.8982,23.64824 -4.819,3.67565 -5.7217,3.86136 -19.16111,3.94164 -7.75712,0.0464 -15.50264,0.55225 -17.21225,1.12425 -1.70963,0.572 -11.42699,0.32679 -21.59416,-0.54492 -14.76806,-1.26617 -19.5059,-1.24412 -23.55827,0.1096 -3.28377,1.09699 -11.18483,1.59167 -22.40584,1.40283 -14.88181,-0.25046 -17.99336,0.0676 -22,2.24901 -5.75476,3.13313 -6.22423,5.73671 -3.25356,18.04359 4.36803,18.09576 8.89796,24.25167 20.17213,27.41265 2.33856,0.65567 6.27023,2.73156 8.73704,4.6131 2.46682,1.88153 7.75346,4.11298 11.7481,4.95877 3.99462,0.8458 8.78986,2.3166 10.65609,3.26845 2.91313,1.48582 5.12981,1.27956 15.67007,-1.45809 6.7523,-1.75379 14.0719,-4.51579 16.26576,-6.13779 2.19385,-1.62198 8.26905,-8.38881 13.50042,-15.0374 13.26424,-16.85756 13.11676,-16.75497 24.08758,-16.75497 8.5655,0 9.6029,0.31473 13.3335,4.04533 3.8457,3.84568 4.0192,4.48732 3.5166,13 -0.5489,9.29488 -7.0144,26.05186 -11.609,30.08738 -1.1869,1.04254 -12.35806,7.03668 -24.82473,13.3203 l -22.66667,11.42479 -23.33333,0.7468 c -20.16317,0.64535 -23.87679,0.44655 -27.33333,-1.46323 z m 44.74614,-127.30951 c 11.81163,-2.95429 14.99052,-4.85252 18.05703,-10.7825 2.17453,-4.20508 2.46459,-14.78818 0.50564,-18.44852 -2.77688,-5.18864 -31.29283,-18.62084 -39.5312,-18.62084 -7.98159,0 -22.01872,6.09984 -27.49728,11.94894 -3.40843,3.63896 -6.81287,5.79019 -10.46021,6.60969 -9.04963,2.03332 -15.82012,10.79793 -15.82012,20.47961 0,6.40857 2.30496,7.78662 12.89194,7.70764 14.37824,-0.1072 32.73782,1.10842 37.10806,2.45713 6.45012,1.99059 12.76382,1.64585 24.74614,-1.35115 z M 628.83538,276.5481 c -7.92845,-8.55608 -8.89309,-17.72328 -2.60547,-24.76008 3.805,-4.25837 4.13912,-4.35524 15.15542,-4.39374 10.11348,-0.0353 11.74046,-0.40232 15.92082,-3.59083 6.69423,-5.10595 7.32571,-10.84224 7.62448,-69.26031 0.2939,-57.46039 0.709,-55.13302 -11.10362,-62.25414 l -7.42815,-4.47798 -6.50188,2.33804 c -3.81925,1.37339 -7.91425,1.98357 -9.92503,1.4789 -5.7719,-1.44866 -14.65057,-9.22196 -18.02673,-15.782472 -2.79169,-5.42479 -3.01156,-6.8199 -1.70077,-10.79163 1.714,-5.19349 5.37372,-8.9352 12.03897,-12.30872 4.89857,-2.47935 7.80121,-2.60534 44.72237,-1.94114 23.8806,0.4296 27.68503,1.54928 30.01567,8.83394 3.98681,12.46123 6.93199,17.79599 9.81519,17.77883 1.55969,-0.009 6.92601,-3.30928 11.92516,-7.33333 4.99913,-4.02406 10.40105,-7.31646 12.00426,-7.31646 1.6032,0 5.83796,-2.07821 9.41058,-4.61825 3.57261,-2.54003 8.37069,-5.22926 10.6624,-5.97605 3.1455,-1.02503 22.2594,-1.13062 30.29213,-0.16735 0.43564,0.0522 4.88271,5.86567 9.8824,12.91873 l 9.09033,12.82374 2.28283,18.062552 c 2.93043,23.18662 2.43303,25.13587 -8.46056,33.1558 -14.14229,10.41164 -14.24267,10.43695 -23.94535,6.03755 -14.64968,-6.64248 -22.64277,-18.87076 -19.77624,-30.25481 2.9264,-11.6218 1.0058,-16.05839 -5.61716,-12.97567 -6.5237,3.03653 -23.43184,19.07401 -27.3743,25.96472 -2.24783,3.92877 -7.12051,10.60984 -10.82819,14.84683 -9.55019,10.91353 -10.52895,13.30574 -9.34855,22.84888 0.54426,4.4 0.3879,19.08593 -0.34746,32.63541 l -1.337,24.63542 5.16026,4.48792 c 9.79392,8.51781 13.2808,9.57458 31.592,9.57458 16.12272,0 16.62691,0.0889 20.08012,3.54216 4.4776,4.47759 5.47531,8.43668 3.57623,14.19096 -1.74029,5.27314 -5.75913,9.4037 -11.42141,11.73892 -5.63135,2.32247 -29.47414,3.05148 -84.38986,2.5803 -8.28108,-0.0711 -17.88108,0.23961 -21.33333,0.69036 -5.69689,0.74382 -6.60053,0.4702 -9.78056,-2.96158 z"
       id="path9966" />
  </g>
</svg>
