
<svg
   version="1.1"
   id="svg9594"
   width="1em"
   height="1em"
   viewBox="0 0 640 82.559998"
   xmlns="http://www.w3.org/2000/svg"
  >  <defs
     id="defs9598" />
  <g
     id="g9600">
    <path
       d="m 504.31731,78.993318 c -7.08442,-0.87665 -12.51674,-2.48327 -17.96118,-5.31206 -10.26404,-5.33291 -16.61642,-14.1606 -18.69178,-25.97529 -0.65968,-3.75554 -0.64387,-11.03029 0.0326,-15.00537 2.45718,-14.43847 11.89107,-25.2173495 26.22032,-29.9585695 10.28512,-3.40311003 23.33299,-3.65669003 33.92,-0.65923 9.7855,2.77052 19.05629,10.0692695 23.35034,18.3833195 1.10614,2.14171 3.04966,7.15461 3.04966,7.86599 0,0.0655 -4.50509,0.11916 -10.01133,0.11916 h -10.01129 l -0.98896,-2 c -1.4538,-2.94001 -3.71488,-5.77021 -5.95565,-7.45462 -2.56653,-1.92929 -3.74746,-2.51371 -7.1696,-3.54811 -2.50954,-0.75854 -3.37421,-0.85626 -7.78317,-0.87965 -5.86182,-0.0311 -7.86899,0.38611 -12.46982,2.59195 -2.59296,1.24318 -3.45213,1.87495 -5.95888,4.38171 -2.49796,2.49794 -3.1442,3.37506 -4.39031,5.9589 -2.01411,4.17626 -2.48537,6.14039 -2.68633,11.19604 -0.19332,4.86306 0.23833,7.75047 1.71174,11.44978 2.92096,7.33384 9.2424,12.5385 17.2336,14.18908 2.6321,0.54366 3.90986,0.6296 7.2,0.48425 4.58029,-0.20234 6.84694,-0.72972 10.24,-2.38251 4.28422,-2.08688 8.23002,-6.74013 10.7071,-12.62682 l 0.9089,-2.16 h 10.192 c 6.47824,0 10.192,0.11485 10.192,0.31521 0,0.17337 -0.51466,1.85346 -1.14368,3.73353 -2.20506,6.59065 -5.38838,11.97261 -9.48614,16.03791 -3.22423,3.19867 -5.63239,4.9386 -9.37018,6.77003 -6.58749,3.22773 -12.66902,4.5056 -22.24,4.67312 -3.432,0.0601 -7.32,-0.0244 -8.64,-0.18775 z M 0.315945,76.611258 c -7.49e-4,-0.088 -0.002,-16.75599 -0.0027,-37.03999 l -0.0014,-36.8799995 32.482736,-0.0815 32.482733,-0.0815 v 7.5194295 7.51943 l -23.28,0.0821 -23.28,0.0821 v 6.88 6.88 l 21.365891,0.0823 21.365895,0.0823 -0.0859,7.43772 -0.08589,7.43773 -21.36,0.0823 -21.36,0.0823 v 15.03773 15.03773 H 9.437314 c -5.016,0 -9.120613,-0.072 -9.121362,-0.16 z m 60.250268,-0.24 C 60.839931,75.675558 93.787147,6.2981685 94.761374,4.3660485 l 0.93041,-1.84521 8.482486,0.0852 8.48249,0.0852 17.43027,36.7218995 c 9.58665,20.19705 17.43028,36.86505 17.43028,37.04 0,0.20384 -3.50516,0.31809 -9.75872,0.31809 h -9.75872 l -3.84256,-7.68 -3.84256,-7.68 H 103.87877 87.442792 l -3.458746,7.68 -3.458745,7.68 H 70.467067 c -7.917187,0 -10.024733,-0.0851 -9.900854,-0.4 z m 51.660047,-30.39999 c -0.0877,-0.22 -2.20733,-4.936 -4.71021,-10.48 -2.50288,-5.544 -4.68254,-10.42398 -4.84367,-10.84438 -0.16114,-0.42041 -0.34476,-0.70841 -0.40806,-0.64 -0.13707,0.14815 -7.318936,17.56422 -9.057445,21.96438 -0.124323,0.31466 1.904698,0.4 9.510435,0.4 7.60652,0 9.63445,-0.0853 9.50895,-0.4 z m 42.65105,-6.32 V 2.5312685 l 26,0.003 c 31.22106,0.003 32.54479,0.1033 38.23678,2.89291 4.70986,2.30828 8.11687,6.2376695 9.89778,11.4153595 0.72664,2.1126 0.85569,3.02153 0.85318,6.0091 -0.007,8.13858 -3.41116,13.87719 -10.57412,17.82464 l -1.98638,1.09468 1.96174,0.90047 c 1.07896,0.49525 2.62543,1.5664 3.4366,2.38033 2.90281,2.91269 3.72195,5.9361 4.17486,15.40918 0.35513,7.42781 0.69612,9.87923 1.80143,12.9507 0.44335,1.232 0.88463,2.49404 0.98062,2.80455 0.1646,0.53243 -0.40482,0.55973 -10.0098,0.48 l -10.18433,-0.0845 -0.59866,-2.24 c -0.45118,-1.68822 -0.6603,-4.05301 -0.84892,-9.6 -0.21393,-6.29118 -0.34636,-7.60672 -0.91197,-9.05891 -1.40152,-3.59843 -3.68272,-5.24085 -8.06968,-5.81005 -1.31952,-0.1712 -7.61913,-0.31572 -13.99913,-0.32115 l -11.6,-0.01 v 13.6 13.6 h -9.28 -9.28 z m 49.28,-5.45707 c 1.96304,-0.56988 4.82285,-3.43563 5.4117,-5.42293 1.28869,-4.34921 -0.46736,-8.53916 -4.38517,-10.46306 l -1.82653,-0.89694 -14.96,-0.10716 -14.96,-0.10715 v 8.85782 8.85782 l 14.64,-0.15018 c 10.71282,-0.1099 15.02628,-0.26233 16.08,-0.56822 z m 38.08,5.45707 V 2.5312685 h 32.48 32.48 v 7.5199995 7.52 h -23.2 -23.2 v 7.04 7.04 l 21.36,-2e-5 21.36,-10e-6 -0.0678,7.44001 -0.0678,7.44002 -21.29216,0.0823 -21.29215,0.0823 v 15.03773 15.03773 h -9.28 -9.28 z m 74.70758,36.71999 c -0.0838,-0.22 -0.11526,-16.88799 -0.07,-37.03999 l 0.0824,-36.6399995 33.84,-0.0815 33.84,-0.0815 v 7.5214595 7.52146 h -24.64624 -24.64624 l 0.0862,6.96 0.0862,6.96 21.68,0.0822 21.68,0.0822 v 7.51776 7.51776 h -21.76 -21.76 v 7.52 7.52 h 24.64008 24.64 v 7.52 7.52 h -33.77005 c -26.72144,0 -33.80183,-0.0835 -33.92237,-0.4 z m 103.21242,-29.19146 v -29.60127 l -12.88,-0.0836 -12.88,-0.0836 -0.0859,-7.4399995 -0.0859,-7.44 h 35.05181 35.05181 l -0.0859,7.44 -0.0859,7.4399995 -12.71834,0.0837 -12.71833,0.0837 -0.0817,29.51633 -0.0817,29.51632 -9.2,0.0849 -9.2,0.0849 z m 144.64,-7.52363 V 2.5312685 h 9.12 9.12 v 14.3999995 14.4 h 19.2 19.2 v -14.4 V 2.5312685 H 630.71865 640 l -0.0814,37.0399995 -0.0813,37.03999 -9.2,0.0849 -9.2,0.0849 v -15.20742 -15.20743 l -19.12,0.0825 -19.12,0.0825 -0.0758,15.04 -0.0758,15.04 -9.12416,0.0849 -9.12416,0.0849 z"
       id="path9604" />
  </g>
</svg>
