
<svg
   version="1.1"
   id="svg1739"
   width="78.528"
   height="34.175999"
   viewBox="0 0 78.528 34.175999"
   xmlns="http://www.w3.org/2000/svg"
   xmlns:svg="http://www.w3.org/2000/svg">
  <defs
     id="defs1743" />
  <g
     id="g1745">
    <g
       id="g1749"
       transform="translate(0.07741752,0.02715015)">
      <path
         style="fill:#d0d0d0;fill-opacity:1;stroke-width:0.192"
         d="m 4.764,32.316842 c 0.1386,-0.05546 0.3042,-0.04864 0.3680001,0.01515 0.0638,0.0638 -0.0496,0.109179 -0.252,0.100842 -0.2236691,-0.0092 -0.2691648,-0.05471 -0.1160001,-0.116 z m 4.1549983,-9.468843 c 0,-3.96 0.025532,-5.58 0.056737,-3.6 0.031206,1.98 0.031206,5.22 0,7.2 -0.031206,1.98 -0.056737,0.36 -0.056737,-3.6 z M 65.712,24.052133 c 0.396,-0.04142 1.044,-0.04142 1.44,0 0.396,0.04142 0.072,0.07531 -0.72,0.07531 -0.792,0 -1.116,-0.03389 -0.72,-0.07531 z M 16.019455,16.128 c 0,-2.6928 0.027,-3.7944 0.06001,-2.448 0.033,1.3464 0.033,3.549599 0,4.895999 -0.03301,1.3464 -0.06001,0.2448 -0.06001,-2.447999 z m 7.296,0 c 0,-2.6928 0.027,-3.7944 0.06001,-2.448 0.033,1.3464 0.033,3.549599 0,4.895999 -0.033,1.3464 -0.06001,0.2448 -0.06001,-2.447999 z M 11.856,19.829107 c 0.3432,-0.04259 0.9048,-0.04259 1.248,0 0.3432,0.04259 0.0624,0.07744 -0.624,0.07744 -0.6864,0 -0.9672,-0.03485 -0.624,-0.07744 z m 14.688,-1.726628 c 0.2904,-0.04399 0.7656,-0.04399 1.056,0 0.2904,0.04399 0.0528,0.07999 -0.528,0.07999 -0.5808,0 -0.8184,-0.03599 -0.528,-0.07999 z M 11.184419,16.992 c 0.0021,-0.4224 0.04145,-0.572593 0.08737,-0.333762 0.04593,0.238831 0.04418,0.584431 -0.0039,0.768 -0.04806,0.183569 -0.08563,-0.01184 -0.0835,-0.434238 z m 0.03814,-7.5840003 c 0,-3.7487999 0.02572,-5.2823998 0.05715,-3.4079999 0.03144,1.8744 0.03144,4.9416002 0,6.8160002 -0.03143,1.8744 -0.05715,0.3408 -0.05715,-3.4080003 z M 59.212299,13.248 c 0,-1.5312 0.02982,-2.1576 0.06626,-1.392 0.03644,0.7656 0.03644,2.0184 0,2.784 -0.03645,0.7656 -0.06626,0.1392 -0.06626,-1.392 z m 14.94812,-2.976 c 0.0021,-0.4224003 0.04145,-0.5725929 0.08737,-0.3337618 0.04592,0.2388318 0.04418,0.5844318 -0.0039,0.7679998 -0.04805,0.183569 -0.08563,-0.01184 -0.0835,-0.434238 z M 16.021948,8.5870385 c -0.0517,-0.1347287 -0.06874,-2.0571287 -0.03786,-4.2719999 l 0.05614,-4.02703861 0.04389,4.16683821 0.04389,4.166838 1.2,0.068167 1.2,0.068167 -1.206026,0.036994 C 16.492746,8.8204415 16.08658,8.7554666 16.021948,8.5870385 Z m 7.291871,-4.0750386 c 1.44e-4,-2.3232 0.02787,-3.2472113 0.06161,-2.0533586 0.03374,1.1938527 0.03362,3.0946527 -1.92e-4,4.2239999 -0.03396,1.1293472 -0.06156,0.1525586 -0.06142,-2.1706413 z m 13.689899,2.0694274 c 0.340845,-0.042415 0.945645,-0.043112 1.344,-0.00156 0.398354,0.041563 0.119482,0.076266 -0.619718,0.077118 -0.7392,8.448e-4 -1.065128,-0.033155 -0.724282,-0.07557 z M 43.469758,5.5199998 43.104,5.0879999 43.536,5.4537575 c 0.2376,0.2011667 0.432,0.3955667 0.432,0.432 0,0.1536486 -0.15452,0.040216 -0.498242,-0.3657577 z M 27.870315,3.4559999 c 0,-0.264 0.04358,-0.372 0.09684,-0.24 0.05326,0.132 0.05326,0.348 0,0.48 -0.05326,0.132 -0.09684,0.024 -0.09684,-0.24 z"
         id="path1763" />
      <path
         style="fill:#b9b9b9;fill-opacity:1;stroke-width:0.192"
         d="m 0.96,26.615508 c 0,-0.03987 0.1512,-0.191069 0.336,-0.336 0.3045227,-0.238823 0.3113138,-0.232032 0.072491,0.07249 C 1.1176676,26.671823 0.96,26.773531 0.96,26.615508 Z m 2.844,-1.594666 c 0.1386,-0.05546 0.3042,-0.04864 0.3680001,0.01515 0.0638,0.0638 -0.0496,0.109179 -0.252,0.100842 C 3.696331,25.127617 3.6508353,25.082125 3.804,25.020834 Z M 2.6434385,22.900851 c 0.3450912,-0.04273 0.8634912,-0.04185 1.152,0.002 0.2885088,0.04381 0.00616,0.07877 -0.6274385,0.07769 -0.6336,-0.0012 -0.8696527,-0.03692 -0.5245615,-0.07965 z M 68.416552,21.311999 c 0,-0.792 0.03389,-1.116 0.07531,-0.72 0.04142,0.396 0.04142,1.044 0,1.44 -0.04142,0.396 -0.07531,0.072 -0.07531,-0.72 z m 0.769268,-0.096 c 7.68e-4,-0.8448 0.03445,-1.166517 0.07501,-0.714925 0.04056,0.451592 0.03999,1.142792 -0.0013,1.536 -0.04126,0.393208 -0.07444,0.02372 -0.07374,-0.821075 z m 6.03018,1.3045 c 0.2376,-0.04576 0.6264,-0.04576 0.864,0 0.2376,0.04576 0.0432,0.08321 -0.432,0.08321 -0.4752,0 -0.6696,-0.03744 -0.432,-0.08321 z M 13.677929,11.289161 13.632,2.7063234 l -1.2,-0.068167 -1.2,-0.068167 1.206026,-0.036994 c 0.816763,-0.025054 1.235739,0.040469 1.298085,0.2030054 0.05063,0.132 0.06859,4.0415999 0.0399,8.6880002 L 13.723851,19.872 Z M 25.60182,16.608 c 7.68e-4,-0.8448 0.03445,-1.166517 0.07501,-0.714925 0.04056,0.451591 0.03999,1.142791 -0.0013,1.536 -0.04118,0.393208 -0.07437,0.02372 -0.07367,-0.821075 z m 2.324615,-5.184 c 6.5e-5,-3.6960002 0.02586,-5.180827 0.05732,-3.2996153 0.03146,1.8812113 0.03141,4.9052113 -1.19e-4,6.7200003 -0.03153,1.814788 -0.05727,0.275615 -0.0572,-3.420385 z M 8.9193036,7.7759998 c 5.43e-5,-4.1183999 0.025479,-5.7758785 0.056499,-3.6832855 0.03102,2.0925928 0.030976,5.4621927 -9.87e-5,7.4879997 -0.031074,2.025807 -0.056454,0.313686 -0.0564,-3.8047142 z M 49.551158,10.832 c 0.0092,-0.223669 0.05471,-0.269165 0.115999,-0.116 0.05546,0.1386 0.04864,0.3042 -0.01515,0.368 -0.0638,0.0638 -0.109179,-0.0496 -0.100842,-0.252 z M 2.448,2.5491079 c 0.3432,-0.042591 0.9048,-0.042591 1.248,0 0.3432,0.042591 0.0624,0.077438 -0.624,0.077438 -0.6864,0 -0.9672,-0.034847 -0.624,-0.077438 z"
         id="path1761" />
      <path
         style="fill:#a3a3a3;fill-opacity:1;stroke-width:0.192"
         d="m 4.38,25.020842 c 0.1386,-0.05546 0.3042,-0.04864 0.3680001,0.01515 0.0638,0.0638 -0.0496,0.109179 -0.252,0.100842 C 4.272331,25.127617 4.2268353,25.082125 4.38,25.020834 Z M 20.972488,16.176 20.928,11.328 l 1.2,0.0363 1.2,0.0363 -1.100667,0.06918 -1.100667,0.06918 -0.05485,4.742518 -0.05484,4.742517 z M 25.728,16.905034 c 0,-1.161874 0.288883,-2.121034 0.638819,-2.121034 0.10625,0 0.139282,-0.0539 0.07341,-0.119774 -0.120192,-0.120192 0.326813,-1.098879 1.024583,-2.24325 l 0.373755,-0.612976 7.18e-4,3.12 7.18e-4,3.119999 H 26.784 25.728 Z M 36.358124,15.648 c 5.76e-4,-1.056 0.03274,-1.463504 0.07165,-0.905564 0.03891,0.55794 0.0385,1.42194 -9.6e-4,1.92 -0.03936,0.49806 -0.07119,0.04156 -0.07069,-1.014436 z m 28.61886,-2.016 c 0,-2.1648 0.028,-3.0504 0.06222,-1.968 0.03422,1.0824 0.03422,2.8536 0,3.936 -0.03422,1.0824 -0.06222,0.1968 -0.06222,-1.968 z M 25.62783,9.1680612 25.632,3.1679999 l 1.056,-0.014321 1.056,-0.014321 -1.005277,0.071822 -1.00528,0.071822 -0.05489,5.942561 -0.05489,5.9425611 0.0042,-6.0000615 z m 10.743287,1.9075998 c -0.05326,-0.138787 -0.0689,-1.1971866 -0.03475,-2.3520001 l 0.06208,-2.0996611 0.04078,2.2472275 0.04078,2.2472277 1.296,0.06717 1.296,0.06717 -1.302025,0.03761 c -0.926507,0.02676 -1.329953,-0.03517 -1.398858,-0.214734 z M 21.009819,4.5119999 c 1.44e-4,-2.3232 0.02787,-3.2472113 0.06161,-2.0533586 0.03374,1.1938527 0.03362,3.0946527 -1.92e-4,4.2239999 -0.03396,1.1293472 -0.06157,0.1525586 -0.06142,-2.1706413 z m 6.845339,-0.015999 c 0.0092,-0.223669 0.05471,-0.2691648 0.115999,-0.1160001 0.05546,0.1386 0.04864,0.3042 -0.01515,0.3680001 -0.0638,0.0638 -0.109179,-0.0496 -0.100842,-0.252 z"
         id="path1759" />
      <path
         style="fill:#8c8c8c;fill-opacity:1;stroke-width:0.192"
         d="M 3.936,33.857707 C 3.7248,33.813344 3.3636417,33.737083 3.133426,33.688235 2.9032103,33.639388 2.58045,33.465021 2.4161808,33.300752 2.1459525,33.030523 2.1492449,32.953548 2.4507548,32.492466 2.7122195,32.092621 2.7219652,32.020208 2.496,32.15628 2.2489263,32.305067 2.2448498,32.284265 2.4673129,32.009911 2.7038143,31.718244 2.7770112,31.716168 3.2993912,31.986301 3.6144121,32.149205 4.2321214,32.29813 4.6720783,32.317243 5.4039817,32.349044 5.472,32.311694 5.472,31.878072 5.472,31.476756 5.3517235,31.380358 4.6869627,31.248896 4.2065075,31.153881 3.6871924,30.869513 3.3484669,30.515961 l -0.5534584,-0.577686 0.43188,-0.112938 c 0.3163928,-0.08274 0.4013094,-0.209259 0.3175573,-0.473138 -0.085266,-0.268652 -0.018658,-0.3602 0.262074,-0.3602 0.2070181,0 0.4339592,-0.1512 0.5043135,-0.336 0.1025638,-0.269405 0.079997,-0.288432 -0.1138581,-0.096 -0.3423473,0.339834 -0.6450668,0.299128 -0.3569752,-0.048 0.1314603,-0.1584 0.3210109,-0.288 0.4212236,-0.288 0.1002127,0 0.3118049,-0.1296 0.4702049,-0.288 0.1584,-0.1584 0.1981402,-0.288 0.088312,-0.288 -0.1098286,0 -0.1510045,-0.126868 -0.091502,-0.281929 0.059502,-0.155061 0.200408,-0.263061 0.3131234,-0.24 0.1127153,0.02306 0.2802526,-0.302686 0.3723053,-0.72388 0.1389091,-0.635593 0.109127,-0.81087 -0.1751492,-1.030798 -0.3111362,-0.240707 -0.2957764,-0.254177 0.1676454,-0.147009 0.2805898,0.06489 0.6477898,0.17079 0.816,0.235338 0.2766399,0.106157 0.310195,-0.723175 0.3514871,-8.68718 l 0.04565,-8.8045412 0.052631,7.3440002 0.052631,7.343999 H 7.138281 c 0.2275452,0 0.3585278,-0.05519 0.2910724,-0.122645 -0.067456,-0.06746 0.095546,-0.381954 0.3622257,-0.698884 0.2666793,-0.316931 0.4397819,-0.69374 0.384672,-0.837354 -0.05511,-0.143615 -0.02901,-0.261117 0.058,-0.261117 0.08701,0 0.2482777,-0.2808 0.3583734,-0.624 0.1500213,-0.46766 0.2050848,0.702333 0.2197747,4.669797 0.022106,5.970484 -0.081639,6.602642 -1.2802896,7.801294 C 6.5853775,33.529821 5.0186901,34.085123 3.936,33.857707 Z M 3.8346424,29.862454 c 0.1285137,-0.15485 0.1891139,-0.39245 0.1346673,-0.528 -0.06128,-0.152563 -0.1047686,-0.116093 -0.1141519,0.09573 C 3.8468212,29.61839 3.6456,29.850512 3.408,29.946016 c -0.2923421,0.117506 -0.3309775,0.177577 -0.1195094,0.185812 0.1718699,0.0067 0.4176382,-0.114524 0.5461518,-0.269374 z m 3.1965082,-6.749606 c 0.02422,-0.165018 -0.00958,-0.246417 -0.075115,-0.180885 -0.065533,0.06553 -0.1389668,0.254168 -0.1631866,0.419188 -0.02422,0.165018 0.00958,0.246416 0.075115,0.180885 0.065533,-0.06553 0.1389668,-0.254168 0.1631866,-0.419188 z m -5.7016823,9.384524 c -0.3390386,-0.383583 -0.35693477,-0.435621 -0.065887,-0.19158 0.2197696,0.184274 0.4429696,0.291656 0.496,0.238626 0.05303,-0.05303 0.096419,0.03318 0.096419,0.191581 0,0.369552 0.018381,0.377883 -0.526532,-0.238627 z M 0.03743015,29.471999 c 0.0039129,-0.3168 0.04694373,-0.423156 0.09562407,-0.236346 0.0486803,0.18681 0.0454789,0.44601 -0.007114,0.576 -0.05259323,0.12999 -0.0924226,-0.02285 -0.08851007,-0.339654 z M 2.4123443,28.47228 c -0.1041956,-0.273638 -0.082142,-0.295691 0.1074806,-0.107481 0.1312163,0.130241 0.1902088,0.285166 0.1310945,0.34428 -0.059114,0.05912 -0.1664732,-0.04744 -0.2385751,-0.236799 z M 3.42,25.212842 c 0.1386,-0.05546 0.3042,-0.04864 0.3680001,0.01515 0.0638,0.0638 -0.0496,0.109179 -0.252,0.100842 C 3.312331,25.319617 3.2668353,25.274125 3.42,25.212834 Z M 1.8174,12.768 C 1.8174313,7.1711998 1.841952,4.909279 1.87189,7.7415091 1.901828,10.573739 1.901803,15.152939 1.8718332,17.917509 1.8418637,20.682078 1.8173688,18.364799 1.8174,12.768 Z m 70.823152,8.543999 c 0,-0.792 0.03389,-1.116 0.07531,-0.72 0.04142,0.396 0.04142,1.044 0,1.44 -0.04142,0.396 -0.07531,0.072 -0.07531,-0.72 z M 7.644,21.180842 c 0.1386,-0.05546 0.3042,-0.04864 0.3680001,0.01515 0.0638,0.0638 -0.0496,0.109179 -0.252,0.100842 C 7.536331,21.287617 7.4908353,21.242125 7.644,21.180835 Z M 16.128,16.128 v -4.8 h 1.152 1.152 v 4.8 4.799999 H 17.28 16.128 Z m 4.992,0.106033 V 11.52 h 1.064458 1.064457 l -0.05646,4.656 -0.05646,4.655999 -1.008,0.05803 -1.008,0.05803 z m -9.792,1.825298 c 0,-0.944168 0.0864,-1.770067 0.192,-1.835331 0.1056,-0.06527 0.198073,-0.394364 0.205495,-0.731332 0.01137,-0.516443 0.03941,-0.552358 0.178505,-0.228668 0.137494,0.319965 0.167261,0.278054 0.178505,-0.251332 0.0079,-0.372627 -0.06499,-0.586827 -0.176306,-0.518028 -0.108837,0.06726 -0.141025,-0.0098 -0.07546,-0.180668 C 11.957585,13.983422 12.288,13.906847 12.288,14.208 c 0,0.1056 0.1008,0.192 0.224,0.192 0.1232,0 0.170514,-0.05349 0.105143,-0.118858 -0.06537,-0.06537 0.0065,-0.244171 0.159619,-0.397333 0.202849,-0.202849 0.226438,-0.375713 0.08686,-0.636521 -0.2438,-0.455545 -0.241362,-0.575288 0.01171,-0.575288 0.111832,0 0.143006,0.09761 0.06928,0.216908 -0.08137,0.131661 -0.02923,0.181966 0.132668,0.128 0.319466,-0.106488 0.362187,-0.650863 0.04642,-0.591472 -0.130162,0.02448 -0.180153,-0.112122 -0.122172,-0.333841 0.05398,-0.206402 0.17232,-0.329429 0.262988,-0.273393 0.09067,0.05604 0.191414,-1.132936 0.223881,-2.6421594 C 13.520856,7.666819 13.56645,9.4343997 13.58971,13.104 L 13.632,19.775999 H 12.48 11.328 Z M 25.733839,9.4559997 25.728,3.2639999 h 1.056 1.056 v 4.2330438 4.2330443 l -0.785355,1.430956 c -0.431944,0.787025 -0.712744,1.432279 -0.624,1.433896 0.08875,0.0016 0.06757,0.06642 -0.04705,0.144 -0.114626,0.07758 -0.306398,0.31386 -0.426162,0.52506 -0.165861,0.292488 -0.219145,-1.091623 -0.223591,-5.8080003 z M 56.327032,12.48 c 0,-1.1088 0.03173,-1.5624 0.07052,-1.008 0.03878,0.5544 0.03878,1.4616 0,2.016 -0.03878,0.5544 -0.07052,0.1008 -0.07052,-1.008 z M 16.128,7.883331 c 0,-0.4161678 0.0864,-0.8100668 0.192,-0.8753312 C 16.599908,6.835007 16.555552,6.4832056 16.272,6.6272966 16.14,6.6943736 16.209,6.5914736 16.425337,6.3986279 16.853591,6.0168739 17.168174,5.4070101 17.114882,5.0618464 17.096352,4.9418619 17.221295,4.7899337 17.392521,4.7242278 17.576676,4.6535608 17.65739,4.4837114 17.59012,4.3084094 17.52757,4.1454149 17.55276,4.059247 17.64608,4.1169251 c 0.09333,0.057678 0.218162,-0.021467 0.277415,-0.1758793 0.05925,-0.1544115 0.01588,-0.3375152 -0.09638,-0.4068971 -0.136719,-0.084497 -0.121129,-0.1774356 0.04722,-0.2814801 0.138233,-0.085432 0.320257,-0.1127331 0.404499,-0.060669 0.08424,0.052065 0.153167,1.2991634 0.153167,2.7713312 V 8.6399997 H 17.28 16.128 Z M 21.12,4.5119999 V 0.38399999 h 1.056 1.056 V 4.5119999 8.6399997 H 22.176 21.12 Z m -4.782874,1.0239999 c 0.103611,-0.1936 0.21003,-0.352 0.236486,-0.352 0.02646,0 0.0481,0.1584 0.0481,0.352 0,0.1936001 -0.106419,0.3520001 -0.236486,0.3520001 -0.169824,0 -0.183383,-0.099225 -0.0481,-0.3520001 z M 16.656,0.43710803 c 0.3432,-0.0425907 0.9048,-0.0425907 1.248,0 0.3432,0.0425908 0.0624,0.0774377 -0.624,0.0774377 -0.6864,0 -0.9672,-0.034847 -0.624,-0.0774377 z m -9.6,-0.19199999 c 0.3432,-0.0425907 0.9048,-0.0425907 1.248,0 0.3432,0.0425907 0.0624,0.0774377 -0.624,0.0774377 -0.6864,0 -0.9672,-0.034847 -0.624,-0.0774377 z"
         id="path1757" />
      <path
         style="fill:#767676;fill-opacity:1;stroke-width:0.192"
         d="M 1.9451752,32.958333 C 1.8275612,32.816618 1.795382,32.636618 1.8736658,32.558334 1.9519496,32.48005 1.8917145,32.444798 1.7398101,32.48 1.5825196,32.516447 1.1899046,32.142043 0.82781007,31.610301 0.28460632,30.812595 0.192,30.510857 0.192,29.538652 c 0,-2.288997 1.5026837,-4.004352 3.7619748,-4.294397 1.3130422,-0.168566 1.6850965,0.126574 1.459692,1.157935 -0.092053,0.421194 -0.25959,0.746941 -0.3723053,0.72388 -0.1127154,-0.02306 -0.2536209,0.08494 -0.3131234,0.24 -0.059503,0.155061 -0.018326,0.281929 0.091502,0.281929 0.1098286,0 0.070088,0.1296 -0.088312,0.288 -0.1584,0.1584 -0.3699922,0.288 -0.4702049,0.288 -0.1002127,0 -0.2897633,0.1296 -0.4212236,0.288 -0.2880916,0.347128 0.014629,0.387834 0.3569752,0.048 0.1938549,-0.192432 0.2164219,-0.173405 0.1138581,0.096 -0.070354,0.1848 -0.2972954,0.336 -0.5043135,0.336 -0.283704,0 -0.3476033,0.09072 -0.2594759,0.368385 0.081177,0.255767 0.011764,0.395696 -0.2270617,0.457728 -0.3280385,0.0852 -0.3281218,0.09037 -0.0018,0.111615 0.1890019,0.01231 0.4199209,-0.17112 0.5158299,-0.409728 0.1175071,-0.292343 0.1775771,-0.330977 0.185813,-0.119508 0.00669,0.171868 -0.1246721,0.426059 -0.2919239,0.564866 -0.4612055,0.382765 -0.9273216,-0.01928 -1.039906,-0.896963 -0.078102,-0.608867 -0.1814419,-0.760475 -0.5542867,-0.813193 -0.60384,-0.08538 -0.8025444,0.278229 -0.6649562,1.216798 0.1169652,0.797887 0.3902997,1.351628 0.9370845,1.898414 0.2719661,0.271966 0.281204,0.368499 0.061225,0.639795 -0.2174388,0.268163 -0.2174246,0.294432 8.86e-5,0.163477 0.2163306,-0.130243 0.2175219,-0.08081 0.00721,0.299143 -0.138575,0.250345 -0.233595,0.519971 -0.21116,0.599171 0.063062,0.222624 -0.081953,0.170794 -0.318034,-0.113666 z M 64.3946,22.367999 c 3.84e-4,-1.3728 0.03092,-1.909207 0.06796,-1.192014 0.03704,0.717191 0.03677,1.840391 -5.76e-4,2.496 -0.03738,0.655607 -0.06769,0.06881 -0.06735,-1.303986 z M 6.7928494,23.351151 c 0.02422,-0.16502 0.097654,-0.353655 0.1631866,-0.419188 0.065533,-0.06553 0.099334,0.01586 0.075115,0.180885 -0.02422,0.16502 -0.097654,0.353654 -0.1631866,0.419188 -0.065533,0.06553 -0.099334,-0.01586 -0.075115,-0.180885 z M 1.9266899,18.014232 c 0.01818,-4.705854 0.030674,-4.855259 0.4720873,-5.645906 0.2493765,-0.446675 0.4020693,-0.86348 0.3393173,-0.926232 -0.062752,-0.06275 0.031552,-0.114094 0.2095634,-0.114094 0.2530057,0 0.2985134,-0.115259 0.2084704,-0.528 -0.088697,-0.406572 -0.068136,-0.461767 0.089402,-0.24 0.1837876,0.258717 0.2940364,0.145257 0.2332064,-0.24 -0.012505,-0.0792 0.054419,-0.144 0.1487213,-0.144 0.094302,0 0.2258799,-0.141821 0.2923953,-0.3151575 C 4.0150903,9.6126589 3.9854543,9.5916103 3.7803952,9.7617945 3.5810948,9.927199 3.5199998,9.9110468 3.5199998,9.6929515 c 0,-0.1567234 0.096356,-0.2849518 0.2141234,-0.2849518 0.1177678,0 0.2332121,-0.2306442 0.2565426,-0.5125426 C 4.0139965,8.6135587 4.0760412,8.3399587 4.1285426,8.2874572 4.1810442,8.2349556 4.224,11.4896 4.224,15.519999 v 7.328 H 3.0660071 1.9080143 Z M 6.72,17.311275 C 6.72,14.371677 6.6880109,9.3820768 6.648913,6.2232755 6.6098152,3.0644739 6.6133094,1.1496 6.656678,1.9679999 c 0.043369,0.8184 0.1617577,1.488 0.2630869,1.488 0.1013293,0 0.1842351,-0.092572 0.1842351,-0.2057144 0,-0.1131427 0.134569,-0.3402831 0.2990419,-0.504756 C 7.5675151,2.5810563 7.6549046,2.3235403 7.5972413,2.1732716 7.5307859,2.0000918 7.5738392,1.9503889 7.7148275,2.0375245 7.8624985,2.1287901 7.8968431,2.0696776 7.8170137,1.8616454 7.6747878,1.4910107 7.9795081,1.2315407 8.1444839,1.5828037 c 0.062305,0.1326579 0.08492,0.020622 0.050256,-0.2489691 -0.055437,-0.43114824 0.2357096,-0.94983461 0.5331561,-0.94983461 0.057257,0 0.1041036,4.24517571 0.1041036,9.43372391 0,9.1216971 -0.098789,10.9182751 -0.6003654,10.9182751 -0.08557,0 -0.1104929,0.117502 -0.055383,0.261117 0.05511,0.143614 -0.1179927,0.520423 -0.384672,0.837354 -0.2666796,0.31693 -0.4296813,0.631428 -0.3622257,0.698884 0.067455,0.06746 -0.064554,0.122645 -0.2933537,0.122645 H 6.72 Z m 1.2920001,3.884724 C 7.9482,21.132199 7.7826,21.125379 7.644,21.18085 c -0.1531647,0.06129 -0.107669,0.106786 0.1160001,0.115999 0.2023998,0.0083 0.3157998,-0.03704 0.252,-0.100843 z M 7.2,3.7971735 C 7.3095698,3.7153994 7.2477471,3.6526177 7.056,3.65094 6.8692239,3.649308 6.72,3.7901179 6.72,3.9679999 6.72,4.1439998 6.7848,4.2098049 6.864,4.1142335 6.9432,4.018662 7.0944,3.8759851 7.2,3.7971735 Z M 75.216,21.944499 c 0.2376,-0.04576 0.6264,-0.04576 0.864,0 0.2376,0.04576 0.0432,0.08321 -0.432,0.08321 -0.4752,0 -0.6696,-0.03744 -0.432,-0.08321 z M 11.33702,9.5053309 11.313679,2.6879999 h 1.189138 1.189137 L 13.565977,5.5985267 C 13.49669,7.1993165 13.44,9.2780153 13.44,10.217858 c 0,0.944181 -0.07615,1.661744 -0.170172,1.603632 -0.09359,-0.05784 -0.214333,0.0637 -0.268308,0.270105 -0.05798,0.221719 -0.008,0.358322 0.122172,0.333841 0.315769,-0.05939 0.273048,0.484984 -0.04642,0.591472 -0.161899,0.05397 -0.214039,0.0037 -0.132668,-0.128 0.07373,-0.1193 0.04256,-0.216908 -0.06928,-0.216908 -0.253074,0 -0.255512,0.119743 -0.01171,0.575288 0.139581,0.260808 0.115992,0.433672 -0.08686,0.636521 -0.153162,0.153162 -0.22499,0.331962 -0.159619,0.397333 C 12.682514,14.346514 12.6352,14.4 12.512,14.4 c -0.1232,0 -0.224,-0.0864 -0.224,-0.192 0,-0.301153 -0.330415,-0.224578 -0.457259,0.105972 -0.06557,0.170865 -0.03338,0.247933 0.07546,0.180668 0.11132,-0.0688 0.184221,0.145401 0.176306,0.518028 -0.01124,0.529386 -0.04101,0.571297 -0.178505,0.251332 -0.139094,-0.32369 -0.16713,-0.287775 -0.178505,0.228668 -0.0074,0.336968 -0.09261,0.661567 -0.189315,0.721331 -0.105,0.06489 -0.185221,-2.637306 -0.19916,-6.7086681 z m 57.929219,6.4868741 c 0.23883,-0.04593 0.58443,-0.04418 0.768,0.0039 0.183569,0.04806 -0.01185,0.08563 -0.434239,0.0835 -0.4224,-0.0021 -0.572592,-0.04145 -0.333761,-0.08737 z M 53.916,15.036842 c 0.138599,-0.05546 0.304201,-0.04864 0.368001,0.01516 0.0638,0.0638 -0.0496,0.109179 -0.252,0.100842 -0.223671,-0.0092 -0.269165,-0.05471 -0.116001,-0.116 z M 16.144975,3.835182 16.109691,0.57599998 h 1.152694 1.152694 L 18.375539,1.9039591 C 18.353793,2.6343367 18.2928,3.228905 18.24,3.2252222 c -0.479304,-0.033432 -0.634706,0.056872 -0.437404,0.2541739 0.242756,0.2427555 0.106005,0.7997757 -0.156515,0.637529 -0.09333,-0.057678 -0.118508,0.02849 -0.05596,0.1914843 0.06727,0.175302 -0.01344,0.3451515 -0.197599,0.4158184 -0.171226,0.065706 -0.296164,0.2176341 -0.277639,0.3376186 0.04997,0.3236496 -0.250778,0.9648984 -0.532429,1.1352312 -0.135577,0.081993 -0.201002,0.2676534 -0.145389,0.412579 0.05561,0.1449259 0.02058,0.3132728 -0.07784,0.3741045 -0.10742,0.066389 -0.193065,-1.1922589 -0.214244,-3.1485791 z m 0.476739,1.7355607 c 0,-0.2254846 -0.07049,-0.3107663 -0.172527,-0.2087295 -0.09489,0.09489 -0.114477,0.2664561 -0.04353,0.3812573 0.180531,0.2921061 0.216053,0.2637404 0.216053,-0.1725278 z"
         id="path1755" />
      <path
         style="fill:#606060;fill-opacity:1;stroke-width:0.192"
         d="m 33.302435,10.848 c 6.5e-5,-3.6960002 0.02586,-5.180827 0.05732,-3.2996153 0.03146,1.8812118 0.03141,4.9052113 -1.19e-4,6.7200003 -0.03153,1.814788 -0.05727,0.275615 -0.0572,-3.420385 z m 28.8,0 c 6.5e-5,-3.6960002 0.02586,-5.180827 0.05732,-3.2996153 0.03146,1.8812118 0.03141,4.9052113 -1.19e-4,6.7200003 -0.03153,1.814788 -0.05727,0.275615 -0.0572,-3.420385 z m -24.89736,2.835168 c 0.451591,-0.04056 1.142791,-0.03999 1.536,0.0013 0.393208,0.04126 0.02372,0.07444 -0.821075,0.07374 -0.8448,-6.91e-4 -1.166517,-0.03445 -0.714925,-0.07501 z M 1.92,7.8719998 V 2.6879999 H 3.0888687 4.2577373 L 4.1573606,5.8079998 C 4.0416781,9.4037471 4.0411899,9.4079997 3.744,9.4079997 c -0.1232001,0 -0.2240001,0.1282284 -0.2240001,0.2849518 0,0.2180951 0.061095,0.2342473 0.2603954,0.068843 C 3.9854546,9.5916103 4.0150906,9.6126589 3.9198534,9.8608425 3.853338,10.034179 3.7217601,10.176 3.6274581,10.176 c -0.094302,0 -0.1612266,0.0648 -0.1487213,0.144 0.06083,0.385257 -0.049419,0.498717 -0.2332064,0.24 -0.1575385,-0.221767 -0.178099,-0.166572 -0.089402,0.24 0.086135,0.394829 0.041626,0.528 -0.1764703,0.528 -0.160412,0 -0.2735282,0.0648 -0.2513693,0.144 0.0445,0.159053 -0.615946,1.584 -0.7341654,1.584 C 1.9533554,13.056 1.92,10.7232 1.92,7.8719998 Z M 58.368,7.0315092 c 0,-0.03987 0.1512,-0.1910699 0.336,-0.336 0.304524,-0.2388232 0.311315,-0.2320321 0.07249,0.072491 C 58.525668,7.0878234 58.368,7.1895318 58.368,7.0315092 Z M 6.72,3.9679999 C 6.72,3.7901179 6.8692239,3.6493057 7.056,3.65094 7.2477471,3.6526104 7.3095698,3.7153994 7.2,3.7971735 7.0944,3.8759851 6.9432,4.018662 6.864,4.1142335 6.7848,4.2098049 6.72,4.1439998 6.72,3.9679999 Z M 39.324,4.092842 C 39.462599,4.037379 39.628199,4.0442 39.692001,4.108 c 0.0638,0.0638 -0.0496,0.1091791 -0.252,0.1008422 C 39.21633,4.1996322 39.170836,4.1541332 39.324,4.092842 Z M 6.72,1.9199999 V 0.38399999 h 0.864 c 0.4752,0 0.864,0.0864 0.864,0.19199999 0,0.1056 -0.074419,0.192 -0.165375,0.192 C 8.191669,0.76799998 8.1488659,1.0056 8.187508,1.296 8.22615,1.5864 8.206789,1.7154616 8.144484,1.5828037 7.9795081,1.2315407 7.6747878,1.4910107 7.8170137,1.8616454 7.8968431,2.0696776 7.8624985,2.1287901 7.7148275,2.0375245 7.5738392,1.9503889 7.5307859,2.0000918 7.5972413,2.1732716 7.6549046,2.3235403 7.5675151,2.5810563 7.4030419,2.7455295 7.238569,2.9100024 7.104,3.1371428 7.104,3.2502855 c 0,0.1131429 -0.0864,0.2057144 -0.192,0.2057144 -0.1119999,0 -0.192,-0.6399999 -0.192,-1.536 z"
         id="path1753" />
      <path
         style="fill:#333333;fill-opacity:1;stroke-width:0.192"
         d="m 60.33978,24.493804 c -1.308961,-0.591122 -1.783299,-2.357977 -0.960727,-3.578592 0.741844,-1.100822 2.466779,-1.439157 3.496923,-0.685897 0.521414,0.381266 0.190487,0.783821 -0.339301,0.412743 C 61.363657,19.820446 59.52,20.818479 59.52,22.275087 c 0,1.460242 1.83879,2.451876 3.016675,1.626854 0.290235,-0.20329 0.453402,-0.226497 0.54544,-0.07758 0.416371,0.673701 -1.627867,1.172727 -2.742335,0.669439 z M 64.512,22.271999 c 0,-2.090666 0.04677,-2.496 0.288,-2.496 0.239305,0 0.288,0.373333 0.288,2.208 v 2.208 h 1.344 c 1.066668,0 1.344,0.05943 1.344,0.288 0,0.233413 -0.309333,0.288 -1.632,0.288 h -1.632 z m 5.065795,2.220599 C 68.793907,24.15141 68.544,23.398817 68.544,21.379349 c 0,-1.2972 0.05499,-1.60335 0.288,-1.60335 0.233585,0 0.288,0.310737 0.288,1.644622 0,2.208607 0.297888,2.76283 1.488,2.768439 1.123265,0.0053 1.392,-0.494544 1.392,-2.589061 0,-1.493333 0.05221,-1.824 0.288,-1.824 0.450877,0 0.405725,3.588127 -0.05227,4.153529 -0.68348,0.84377 -1.57776,1.033219 -2.657935,0.56307 z m 4.576286,-2.148211 0.05392,-2.472388 1.248,0.006 c 1.701016,0.0083 2.278946,0.19105 2.507892,0.793222 0.145076,0.381578 0.116756,0.61281 -0.119151,0.972848 -0.290515,0.443384 -0.284951,0.498384 0.0909,0.898458 0.220197,0.23439 0.400358,0.656204 0.400358,0.937364 0,0.802078 -0.734001,1.153027 -2.618387,1.251932 l -1.61745,0.08489 0.05392,-2.472387 z m 3.375519,1.617212 c 0.713875,-0.713875 -0.142445,-1.4976 -1.636322,-1.4976 H 74.88 v 0.864 0.864 h 1.2096 c 0.684801,0 1.309561,-0.09996 1.44,-0.2304 z M 77.308276,21.5938 c 0.217169,-0.296996 0.21667,-0.417447 -0.0031,-0.749818 -0.203366,-0.307561 -0.503368,-0.408841 -1.343502,-0.453563 L 74.88,20.332836 v 0.897358 0.897356 l 1.084773,-0.08996 c 0.758072,-0.06286 1.162695,-0.196521 1.343503,-0.443792 z M 51.910764,17.389111 c -1.487862,-0.338345 -2.199833,-0.707957 -3.277903,-1.701688 -2.742115,-2.527593 -2.765169,-7.3617889 -0.04682,-9.8176549 2.16873,-1.959318 5.775761,-2.5016295 8.531395,-1.282682 0.858846,0.3799088 2.114561,1.2925885 2.114561,1.5369075 0,0.063803 -0.412579,0.4962192 -0.916844,0.9609241 L 57.398312,7.9298355 56.968537,7.5260814 c -0.676875,-0.6358907 -1.84919,-1.0364816 -3.033228,-1.0364816 -2.550259,0 -4.397168,1.7903028 -4.397168,4.2624002 0,3.007912 2.828793,5.015671 5.835304,4.141654 L 56.448,14.581273 V 12.570636 10.56 h 1.344 1.344 v 2.674926 2.674925 l -0.535715,0.381463 c -1.474464,1.049911 -4.625873,1.567079 -6.689521,1.097797 z M 33.408,10.725083 V 3.9781673 l 3.6,0.1039665 c 2.674894,0.07725 3.855496,0.1891983 4.594251,0.4356418 C 43.665575,5.2060875 44.76,6.7156566 44.76,8.873346 c 0,2.023963 -0.652545,3.156036 -2.352912,4.081973 -0.946535,0.515436 -1.235772,0.57014 -3.527088,0.66708 L 36.384,13.728 36.329048,15.6 36.274095,17.471999 H 34.841048 33.408 Z m 6.894017,0.35208 C 41.632353,10.611022 42.226919,8.9116976 41.477881,7.716446 40.914964,6.8181922 40.071155,6.5279998 38.022167,6.5279998 H 36.288 V 8.9279997 11.328 l 1.68,-0.01084 c 0.924,-0.006 1.974307,-0.11396 2.334017,-0.24 z M 62.208,10.742838 V 4.0136764 l 1.2,0.057162 1.2,0.057162 2.429626,4.0258749 c 1.336293,2.2142317 2.503088,4.0503627 2.592879,4.0802927 0.08979,0.02993 1.249828,-1.781713 2.577861,-4.0258742 L 74.62297,4.1279999 H 75.855485 77.088 L 77.138488,10.8 l 0.05049,6.671999 h -1.43867 -1.438669 L 74.259819,13.423857 74.208,9.3757138 72.288,12.656131 70.368,15.936549 69.605973,15.888274 68.843946,15.84 66.917973,12.672 64.992,9.5039997 64.940104,13.488 l -0.0519,3.983999 H 63.548104 62.208 Z"
         id="path1751" />
    </g>
  </g>
</svg>
