
<svg
   version="1.1"
   id="svg7666"
   width="1em"
   height="1em"
   viewBox="0 0 144 27.072001"
   xmlns="http://www.w3.org/2000/svg"
>
  <defs
     id="defs7670" />
  <g
     id="g7672">
    <path
          d="m 50.154088,26.226305 c 0.05367,-0.132 0.6769,-1.5792 1.384959,-3.216 1.16785,-2.699683 1.26989,-3.038394 1.099006,-3.648 -0.103607,-0.3696 -1.365594,-3.561514 -2.804417,-7.093142 -1.438825,-3.5316284 -2.616044,-6.4504584 -2.616044,-6.4862884 0,-0.03583 0.958954,-0.04072 2.131008,-0.01086 l 2.13101,0.05429 1.708566,4.4955754 c 0.939713,2.472567 1.74954,4.536549 1.79962,4.586628 0.05008,0.05008 0.171782,-0.11533 0.270451,-0.367575 0.09867,-0.252246 0.915467,-2.316229 1.815108,-4.5866294 l 1.63571,-4.127999 2.126263,-0.05429 c 1.169445,-0.02986 2.126264,-0.0178 2.126264,0.02679 0,0.04459 -1.952552,4.6050234 -4.339004,10.1342884 -2.386453,5.529264 -4.382896,10.161209 -4.436542,10.293209 -0.06932,0.170569 -0.680757,0.24 -2.113538,0.24 -1.536841,0 -1.992807,-0.05704 -1.91842,-0.239999 z M 7.0982897,21.648572 C 5.0186684,21.240913 2.4842868,19.327219 1.5162725,17.433628 -1.1285673,12.2599 1.8872553,6.2974866 7.6487233,5.3095046 14.196245,4.1867286 19.236778,11.130869 16.285463,17.207994 14.661999,20.550908 10.863865,22.38672 7.0982897,21.648572 Z M 10.12377,17.983626 c 1.236557,-0.311368 2.74264,-1.813152 3.098662,-3.089818 0.769879,-2.760717 -0.989439,-5.5637354 -3.7712875,-6.0085704 -1.670978,-0.267201 -3.6747721,0.798169 -4.5575528,2.4231414 -1.3670711,2.516427 -0.174513,5.663664 2.5084792,6.620037 0.9285115,0.330975 1.5744972,0.344079 2.7216991,0.05521 z m 25.962476,3.579581 c -2.315215,-0.650112 -4.246351,-2.270178 -5.337298,-4.477562 -0.695954,-1.40817 -0.715356,-1.505244 -0.715356,-3.57934 0,-2.077482 0.01843,-2.169204 0.721763,-3.5923044 1.583057,-3.203097 4.864224,-5.02946 8.398237,-4.674625 0.6864,0.06892 1.712041,0.337171 2.279201,0.596117 1.20677,0.55097 1.368799,0.571787 1.368799,0.175859 0,-0.248437 0.287808,-0.286286 1.824975,-0.24 1.003738,0.03022 1.824538,0.119753 1.824,0.198953 -5.35e-4,0.0792 -9.75e-4,3.5568 -9.75e-4,7.7280004 v 7.584 h -1.824 c -1.493334,0 -1.824,-0.05221 -1.824,-0.288 0,-0.377829 -0.05021,-0.371079 -1.47265,0.197988 -1.567981,0.627291 -3.773882,0.783356 -5.242696,0.370914 z m 4.174216,-3.905879 c 3.296107,-1.681548 3.308951,-6.613946 0.02159,-8.2910314 -3.353213,-1.710681 -7.301303,1.3128464 -6.534181,5.0040084 0.640702,3.082868 3.793554,4.674171 6.512588,3.287023 z m 28.097219,3.909828 c -2.405812,-0.676443 -4.360186,-2.343327 -5.453411,-4.651214 -0.575673,-1.215295 -0.614678,-1.431656 -0.614678,-3.409637 0,-1.977981 0.039,-2.194343 0.614678,-3.409638 1.945016,-4.1060874 6.865736,-6.0503584 10.784523,-4.2611744 1.202859,0.549184 1.368799,0.571346 1.368799,0.182812 0,-0.23579 0.330666,-0.288 1.824,-0.288 h 1.824 v 7.7760004 7.776 h -1.824 c -1.493334,0 -1.824,-0.05221 -1.824,-0.288 0,-0.377829 -0.05021,-0.371079 -1.47265,0.197988 -1.561054,0.624521 -3.774737,0.78327 -5.227261,0.374863 z m 4.131412,-3.898866 c 1.642159,-0.844389 2.460171,-2.229175 2.467432,-4.177042 0.0044,-1.181933 -0.07073,-1.48221 -0.576528,-2.304 -1.638259,-2.6617524 -4.872232,-3.0985724 -7.076888,-0.955892 -2.455472,2.386446 -1.539634,6.494273 1.717584,7.703921 0.959837,0.356459 2.484118,0.239124 3.4684,-0.266987 z m 38.798607,3.979673 c -4.14431,-0.975295 -6.94433,-5.179841 -6.28396,-9.43605 1.01134,-6.5182574 9.04051,-9.3102234 13.84713,-4.8150384 1.01477,0.949019 2.08971,2.583025 2.09292,3.1814294 0.002,0.298042 -0.21828,0.336 -1.94629,0.336 h -1.94809 l -0.90925,-0.850497 c -1.45897,-1.3646954 -3.21071,-1.5916544 -5.12656,-0.6642064 -2.62973,1.2730304 -3.16128,5.2722564 -0.98942,7.4441154 1.73104,1.731043 4.5273,1.808695 6.1648,0.171197 l 0.72461,-0.724608 h 2.016 c 1.12241,0 2.016,0.07956 2.016,0.1795 0,0.427453 -0.46363,1.33059 -1.14957,2.239351 -1.83336,2.428886 -5.41633,3.666456 -8.50832,2.938807 z m 17.4004,0.02191 c -2.95906,-0.629821 -5.53288,-3.101222 -6.29438,-6.04391 -1.22531,-4.734982 1.71518,-9.3354924 6.57574,-10.2880134 1.84226,-0.361025 3.23934,-0.146543 5.65613,0.868339 0.23914,0.100423 0.336,0.05215 0.336,-0.167445 0,-0.262843 0.2847,-0.308542 1.92218,-0.308542 h 1.92218 l -0.0502,7.7280004 -0.0502,7.728 -1.872,0.05495 c -1.57946,0.04637 -1.872,0.0089 -1.872,-0.24 0,-0.386216 -0.0448,-0.380179 -1.49976,0.201882 -1.37202,0.548896 -3.43849,0.750937 -4.77373,0.466737 z m 3.13525,-3.745687 c 1.03564,-0.307553 2.16292,-1.252038 2.67404,-2.240435 0.43132,-0.834077 0.5614,-2.488541 0.27584,-3.508431 -0.13257,-0.473519 -0.54251,-1.213141 -0.91097,-1.643604 -1.82529,-2.1324334 -4.78348,-2.2040324 -6.70318,-0.162239 -0.93199,0.991269 -1.24962,1.78389 -1.25743,3.137855 -0.0117,2.026329 1.14848,3.711762 3.02936,4.400905 0.9845,0.360714 1.71777,0.364758 2.89234,0.01595 z M 101.50559,21.32283 99.825592,21.26735 V 13.491873 5.7163946 l 1.871998,0.05495 1.872,0.05495 0.0502,7.7066304 c 0.0395,6.071644 -10e-4,7.721346 -0.192,7.775999 -0.13319,0.03815 -0.99816,0.04441 -1.92216,0.0139 z M 18.079938,10.866304 18.129588,0.45030364 h 1.728 1.728 l 0.096,6.14400096 0.096,6.1439994 0.527766,-0.672 c 0.290271,-0.3696 1.458741,-1.9248 2.5966,-3.4559994 l 2.068835,-2.784 2.155399,-0.05429 c 1.18547,-0.02986 2.1554,0.0091 2.1554,0.08654 0,0.07746 -1.2528,1.798215 -2.784,3.823906 -1.5312,2.0256904 -2.784,3.7248784 -2.784,3.7759724 0,0.05109 1.297396,1.810767 2.883101,3.910383 l 2.883101,3.817485 -2.054761,0.05486 c -1.13012,0.03017 -2.146716,0.01932 -2.259101,-0.02411 -0.112387,-0.04343 -1.318898,-1.601718 -2.681136,-3.462857 -1.362238,-1.86114 -2.550238,-3.38389 -2.64,-3.38389 -0.08976,0 -0.163204,1.5552 -0.163204,3.456 v 3.456 h -1.825653 -1.825654 z m 63.844352,4.320001 -0.0507,-6.0960004 -0.624,-0.06016 -0.624,-0.06016 v -1.60767 -1.607671 l 0.600054,-0.06016 c 0.567748,-0.05692 0.617239,-0.128702 0.919303,-1.333224 0.382883,-1.526796 1.09282,-2.658522 2.146524,-3.42182196 0.871302,-0.631166 2.560339,-1.086489 3.321608,-0.895423 0.494701,0.124162 0.500511,0.146458 0.500511,1.92068196 v 1.795062 l -0.814038,0.109185 c -0.908697,0.121882 -1.543451,0.719376 -1.451057,1.365878 0.04826,0.33771 0.212995,0.408473 1.065095,0.457532 l 1.008,0.05803 v 1.621966 1.621966 h -1.056 -1.056 v 6.1440004 6.144 h -1.9173 -1.917305 z m 7.917302,-1.68 V 5.7303046 h 1.824 c 1.493334,0 1.824,0.05221 1.824,0.288 0,0.381339 0.251862,0.363216 1.122088,-0.08074 0.802601,-0.409456 3.003585,-0.866692 3.297518,-0.685032 0.103616,0.06404 0.188394,0.87477 0.188394,1.801624 v 1.685191 l -1.104,0.310469 c -1.398058,0.393165 -2.467557,1.2787284 -3.046892,2.5228824 -0.434448,0.932998 -0.453435,1.155787 -0.455232,5.341606 l -0.0019,4.368 h -1.824 -1.824 z m 50.303998,5.958952 V 17.634305 H 142.0728 144 l -0.0552,1.776 -0.0552,1.776 -1.872,0.05495 -1.872,0.05495 z M 99.866014,2.1373486 99.921594,0.45030364 h 1.823996 1.824 v 1.63200096 1.632 l -1.87958,0.05504 -1.879572,0.05504 z"
       id="path7676" />
  </g>
</svg>
