
<svg
   version="1.1"
   id="svg2845"
   width="112.32"
   height="51.52"
   viewBox="0 0 112.32 51.52"
   xmlns="http://www.w3.org/2000/svg"
  >
  <defs
     id="defs2849" />
  <g
     id="g2851">
    <g
       id="g2855"
       transform="translate(0.09162961,0.09306387)">
      <path
          d="m 39.3,44.901405 c 0.230998,-0.09244 0.506998,-0.08107 0.613334,0.02525 0.106333,0.106333 -0.08267,0.181965 -0.42,0.16807 C 39.12055,45.079363 39.044726,45.003542 39.3,44.901392 Z m 14.86609,-0.0032 c 0.31135,-0.08113 0.74335,-0.0758 0.96,0.01187 0.216649,0.08766 -0.03809,0.154038 -0.56609,0.147517 -0.528,-0.0065 -0.705261,-0.07824 -0.39391,-0.159373 z m 2.73391,0.0032 c 0.230998,-0.09244 0.506998,-0.08107 0.613334,0.02525 0.106333,0.106333 -0.08267,0.181965 -0.42,0.16807 C 56.72055,45.079363 56.644726,45.003542 56.9,44.901392 Z m 4.86,0.0959 c 0,-0.06749 0.355642,-0.190682 0.790317,-0.273776 0.434672,-0.08309 0.714176,-0.02787 0.621113,0.122697 -0.163865,0.26514 -1.41143,0.39868 -1.41143,0.15108 z m 1.92,-9.6e-4 c 0,-0.06803 0.424394,-0.185968 0.943101,-0.2621 0.518704,-0.07613 0.870205,-0.02048 0.781113,0.12368 C 65.245651,45.114464 63.68,45.240154 63.68,44.99632 Z m 5.76,0 c 0,-0.06803 0.424394,-0.185968 0.943101,-0.2621 0.518704,-0.07613 0.870205,-0.02048 0.781113,0.12368 C 71.005651,45.114464 69.44,45.240154 69.44,44.99632 Z m 5.36,-0.08825 c 0.22,-0.08877 0.58,-0.08877 0.8,0 0.22,0.08877 0.04,0.161405 -0.4,0.161405 -0.44,0 -0.62,-0.07263 -0.4,-0.161405 z M 40.345264,43.33336 c 0.01536,-0.372784 0.09118,-0.448608 0.193331,-0.193334 0.09244,0.230998 0.08107,0.506998 -0.02525,0.613334 -0.106336,0.106333 -0.181965,-0.08267 -0.16807,-0.42 z M 70.34,43.62143 c 0.230998,-0.09244 0.506998,-0.08107 0.613334,0.02525 0.106333,0.106333 -0.08267,0.181965 -0.42,0.168071 C 70.16055,43.799389 70.084726,43.723568 70.34,43.621418 Z m 4.86,-0.878912 c 0,-0.088 0.288,-0.314134 0.64,-0.502518 0.352,-0.188384 0.64,-0.270518 0.64,-0.182518 0,0.088 -0.288,0.314134 -0.64,0.502518 -0.352,0.188384 -0.64,0.270518 -0.64,0.182518 z M 48.482266,42.243664 c -0.112109,-0.181395 0.01635,-0.23504 0.301113,-0.125763 0.554375,0.212733 0.655805,0.442099 0.195507,0.442099 -0.165612,0 -0.389094,-0.142352 -0.49662,-0.316336 z M 54.98,42.341405 c 0.230998,-0.09244 0.506998,-0.08107 0.613334,0.02525 0.106333,0.106333 -0.08267,0.181965 -0.42,0.16807 C 54.80055,42.519363 54.724726,42.443542 54.98,42.341392 Z m 9.92,0 c 0.230998,-0.09244 0.506998,-0.08107 0.613334,0.02525 0.106333,0.106333 -0.08267,0.181965 -0.42,0.16807 C 64.72055,42.519363 64.644726,42.443542 64.9,42.341392 Z m 5.76,0 c 0.230998,-0.09244 0.506998,-0.08107 0.613334,0.02525 0.106333,0.106333 -0.08267,0.181965 -0.42,0.16807 C 70.48055,42.519363 70.404726,42.443542 70.66,42.341392 Z M 105.37916,38.56 c 0.002,-1.056 0.0615,-1.449421 0.13275,-0.874269 0.0712,0.575152 0.0697,1.439152 -0.003,1.92 -0.073,0.480848 -0.13129,0.01027 -0.12949,-1.045731 z m 4.15236,0 c 0.003,-0.88 0.0645,-1.202019 0.13811,-0.7156 0.0735,0.486419 0.0716,1.206419 -0.004,1.6 -0.076,0.393581 -0.13613,-0.0044 -0.13373,-0.8844 z M 9.7168739,36 c 8.32e-4,-1.76 0.05457,-2.439174 0.1194154,-1.509274 0.064845,0.929901 0.064164,2.369901 -0.0015,3.2 C 9.769096,38.520826 9.7160406,37.76 9.7168739,36 Z m 51.7483901,1.253334 c 0.01536,-0.372784 0.09118,-0.448608 0.193331,-0.193334 0.09244,0.230998 0.08107,0.506998 -0.02525,0.613334 -0.106336,0.106333 -0.181965,-0.08267 -0.16807,-0.42 z M 35.396189,37.061446 c 0.09242,-0.149536 0.302083,-0.18904 0.465923,-0.08778 0.418682,0.258759 0.371539,0.359667 -0.168035,0.359667 -0.256259,0 -0.390307,-0.122348 -0.297888,-0.271887 z M 37.28,37.12 c -0.108774,-0.176 -0.04527,-0.32 0.141114,-0.32 0.186387,0 0.338886,0.144 0.338886,0.32 0,0.176 -0.0635,0.32 -0.141114,0.32 -0.07761,0 -0.230112,-0.144 -0.338886,-0.32 z M 88.025264,22.213333 c 0.01536,-0.372781 0.09118,-0.448608 0.193331,-0.193333 0.09244,0.231 0.08107,0.507 -0.02525,0.613333 -0.106333,0.106334 -0.181965,-0.08267 -0.16807,-0.42 z M 1.7253507,18.24 c 0,-2.376 0.050375,-3.348 0.1119454,-2.16 0.06157,1.188 0.06157,3.132 0,4.32 -0.06157,1.188 -0.1119454,0.216 -0.1119454,-2.16 z M 19.969596,14 19.36,13.28 l 0.72,0.609596 c 0.676622,0.57287 0.865677,0.830404 0.609596,0.830404 -0.06072,0 -0.384722,-0.324 -0.72,-0.72 z M 27.78,9.0614035 c 0.231,-0.092439 0.507,-0.08107 0.613333,0.025264 0.106334,0.1063335 -0.08267,0.1819651 -0.42,0.1680704 C 27.600552,9.2393843 27.524725,9.1635568 27.78,9.0614045 Z"
         id="path2869" />
      <path
         d="m 36.660573,44.253802 c -0.173658,-0.456064 -0.136903,-0.49282 0.179136,-0.179136 0.218694,0.217068 0.317014,0.475276 0.218489,0.573801 -0.09852,0.09853 -0.277456,-0.07907 -0.397625,-0.394665 z m 17.597872,0.256041 c -0.09863,-0.159587 0.10887,-0.21479 0.461113,-0.122678 C 55.466755,44.58256 55.561206,44.8 54.898886,44.8 c -0.253612,0 -0.541811,-0.13057 -0.640441,-0.290157 z M 70.34,44.581405 c 0.230998,-0.09244 0.506998,-0.08107 0.613334,0.02525 0.106333,0.106333 -0.08267,0.181965 -0.42,0.16807 C 70.16055,44.759363 70.084726,44.683542 70.34,44.581392 Z M 47.385264,43.653334 c 0.01536,-0.372784 0.09118,-0.448608 0.193331,-0.193334 0.09244,0.230998 0.08107,0.506998 -0.02525,0.613334 -0.106336,0.106333 -0.181965,-0.08267 -0.16807,-0.42 z m 14.574269,0.0143 c -0.308794,-0.8047 -0.217699,-1.012336 0.159529,-0.363628 0.186781,0.3212 0.272192,0.651411 0.189802,0.733801 -0.08239,0.08239 -0.23959,-0.08419 -0.349331,-0.370173 z m 2.595133,-0.187337 c 0.217068,-0.218695 0.475276,-0.317015 0.573801,-0.21849 0.09852,0.09852 -0.07908,0.277456 -0.394665,0.397626 -0.456064,0.173657 -0.49282,0.136902 -0.179136,-0.179136 z M 41.783747,42.986499 c -0.112601,-0.29343 -0.09201,-0.646083 0.04576,-0.78367 0.13777,-0.137591 0.271258,0.102489 0.296637,0.533507 0.05391,0.915472 -0.05622,0.995936 -0.3424,0.250163 z M 44.48,43.394237 c 0,-0.06917 0.223478,-0.21152 0.496621,-0.316336 0.284774,-0.109277 0.413222,-0.05563 0.301113,0.125763 C 45.089811,43.507731 44.48,43.653408 44.48,43.394237 Z M 46.4,42.88 c 0,-0.176 0.144,-0.32 0.32,-0.32 0.176,0 0.32,0.144 0.32,0.32 0,0.176 -0.144,0.32 -0.32,0.32 -0.176,0 -0.32,-0.144 -0.32,-0.32 z m 11.346842,-0.34129 c -0.11601,-0.187708 -0.124509,-0.427708 -0.01888,-0.533334 0.105625,-0.105622 0.192044,-0.01555 0.192044,0.200176 0,0.215722 0.16625,0.289472 0.369444,0.163891 0.228896,-0.141465 0.282579,-0.08778 0.141113,0.141114 -0.282921,0.457776 -0.414835,0.463209 -0.683715,0.02816 z M 37.6,42.24 c 0.108774,-0.176 0.261274,-0.32 0.338886,-0.32 0.07761,0 0.141114,0.144 0.141114,0.32 0,0.176 -0.152499,0.32 -0.338886,0.32 -0.186388,0 -0.249888,-0.144 -0.141114,-0.32 z M 51.647037,42.18667 C 51.556394,42.04 51.778726,41.92 52.141114,41.92 52.503501,41.92 52.8,42.04 52.8,42.186666 c 0,0.146668 -0.222333,0.266668 -0.494077,0.266668 -0.271741,0 -0.56824,-0.12 -0.658886,-0.266668 z m 2.574397,0.0233 c -0.09856,-0.159479 0.189292,-0.289959 0.63968,-0.289959 0.980496,0 1.059702,0.182381 0.179206,0.412637 -0.351827,0.092 -0.720323,0.0368 -0.818886,-0.122678 z m 5.425603,-0.0233 C 59.556394,42.04 59.778726,41.92 60.141114,41.92 60.503501,41.92 60.8,42.04 60.8,42.186666 c 0,0.146668 -0.222333,0.266668 -0.494077,0.266668 -0.271741,0 -0.56824,-0.12 -0.658886,-0.266668 z m 7.68,0 C 67.236394,42.04 67.458726,41.92 67.821114,41.92 c 0.362387,0 0.658886,0.12 0.658886,0.266666 0,0.146668 -0.222333,0.266668 -0.494077,0.266668 -0.271741,0 -0.56824,-0.12 -0.658886,-0.266668 z M 64.40609,42.018243 c 0.31135,-0.08113 0.74335,-0.0758 0.96,0.01187 0.216649,0.08766 -0.03809,0.154039 -0.56609,0.147517 -0.528,-0.0065 -0.705261,-0.07824 -0.39391,-0.159373 z m 5.76,0 c 0.31135,-0.08113 0.74335,-0.0758 0.96,0.01187 0.216649,0.08766 -0.03809,0.154039 -0.56609,0.147517 -0.528,-0.0065 -0.705261,-0.07824 -0.39391,-0.159373 z m 4.95391,0.0098 c 0.22,-0.08877 0.58,-0.08877 0.8,0 0.22,0.08877 0.04,0.161405 -0.4,0.161405 -0.44,0 -0.62,-0.07263 -0.4,-0.161405 z M 61.013334,39.786662 C 60.896,39.669334 60.8,39.424534 60.8,39.242666 c 0,-0.200512 0.149046,-0.18162 0.378666,0.048 0.208268,0.208268 0.304268,0.453068 0.213334,0.544 -0.09093,0.09093 -0.261334,0.06933 -0.378666,-0.048 z M 41.46857,39.31377 C 41.56163,39.163197 41.793398,39.04 41.983606,39.04 c 0.190212,0 0.534551,-0.252 0.7652,-0.56 0.384362,-0.513261 0.404916,-0.502557 0.24626,0.128243 -0.09989,0.397146 -0.495095,0.749795 -0.9344,0.833773 -0.418714,0.08004 -0.685159,0.02234 -0.592096,-0.128243 z M 99.14,39.461402 c 0.230998,-0.09244 0.507002,-0.08107 0.613334,0.02525 0.106333,0.106336 -0.08267,0.181964 -0.42,0.16807 C 98.96055,39.63936 98.884726,39.563539 99.14,39.461389 Z M 58.453334,39.146666 C 58.336,39.029334 58.24,38.784534 58.24,38.602666 c 0,-0.200512 0.149046,-0.18162 0.378666,0.048 0.208268,0.208268 0.304268,0.453068 0.213334,0.544 -0.09093,0.09093 -0.261334,0.06933 -0.378666,-0.048 z M 62.724899,38.8 c 0.0029,-0.319578 0.107434,-0.422618 0.243725,-0.24 0.13135,0.176 0.369146,0.428 0.528432,0.56 0.159286,0.132 0.04961,0.24 -0.243722,0.24 -0.29647,0 -0.531158,-0.248707 -0.528435,-0.56 z m 34.260365,-0.266666 c 0.01536,-0.372784 0.09118,-0.448608 0.193331,-0.193334 0.09244,0.230998 0.08107,0.506998 -0.02525,0.613334 -0.106333,0.106333 -0.181965,-0.08267 -0.16807,-0.42 z M 38.98,38.501398 c 0.230998,-0.09244 0.506998,-0.08107 0.613334,0.02525 0.106333,0.106336 -0.08267,0.181965 -0.42,0.168071 C 38.80055,38.679357 38.724726,38.603536 38.98,38.501386 Z m 11.52,0 c 0.230998,-0.09244 0.506998,-0.08107 0.613334,0.02525 0.106333,0.106336 -0.08267,0.181965 -0.42,0.168071 C 50.32055,38.679357 50.244726,38.603536 50.5,38.501386 Z M 70.896803,38.32 C 70.628848,37.449363 70.849514,36.8 71.413334,36.8 71.736,36.8 72,36.944 72,37.12 c 0,0.176 -0.216,0.32 -0.48,0.32 -0.579696,0 -0.642688,0.841021 -0.08,1.06807 0.313299,0.12642 0.311123,0.16688 -0.01005,0.186666 C 71.204426,38.708624 70.964509,38.54 70.896797,38.32 Z m -4.315046,-0.48 c -0.285975,-0.485219 -0.371671,-0.496442 -0.641738,-0.08404 -0.247993,0.378697 -0.300665,0.329651 -0.257757,-0.24 0.05698,-0.756384 0.385085,-0.934211 0.720964,-0.390746 0.110547,0.178871 0.304188,0.261443 0.430313,0.183495 0.126125,-0.07795 0.229319,0.135702 0.229319,0.47478 0,0.758976 -0.06275,0.766346 -0.481101,0.05651 z m 2.314134,-0.180925 C 69.074666,37.187187 68.996224,37.116157 68.477987,37.28064 68.112672,37.396586 67.84,37.337146 67.84,37.141565 67.84,36.953702 68.272,36.8 68.8,36.8 c 1.102362,0 1.173651,0.154016 0.417904,0.902858 -0.507728,0.503091 -0.528141,0.500316 -0.322013,-0.04378 z M 44.24,37.54807 C 43.497494,37.248464 43.833213,36.8 44.8,36.8 c 0.528,0 0.96,0.153702 0.96,0.341565 0,0.202649 -0.276589,0.253779 -0.680074,0.125715 -0.457644,-0.145248 -0.608457,-0.09997 -0.461113,0.138438 0.235741,0.38144 0.224333,0.385728 -0.378813,0.142352 z m 3.2,0 C 46.697494,37.248464 47.033213,36.8 48,36.8 c 0.528,0 0.96,0.153702 0.96,0.341565 0,0.202649 -0.276589,0.253779 -0.680074,0.125715 -0.457644,-0.145248 -0.608457,-0.09997 -0.461113,0.138438 0.235741,0.38144 0.224333,0.385728 -0.378813,0.142352 z m 2.16,-0.08918 c 0,-0.165612 0.142352,-0.389094 0.316336,-0.49662 0.181395,-0.112109 0.23504,0.01635 0.125763,0.301113 C 49.829366,37.817754 49.6,37.919184 49.6,37.458886 Z m 13.866666,-0.164809 c 0,-0.256259 0.122348,-0.390307 0.271888,-0.297888 0.149536,0.09242 0.18904,0.302083 0.08778,0.465923 -0.258759,0.418682 -0.359667,0.371539 -0.359668,-0.168035 z M 53.001024,37.053619 c 0.225158,-0.364313 1.324621,-0.312813 1.563206,0.07323 0.12354,0.199891 -0.171264,0.298403 -0.758976,0.253619 -0.528537,-0.04027 -0.890438,-0.187354 -0.80423,-0.326845 z M 56.64,37.12 c 0,-0.176 0.144,-0.32 0.32,-0.32 0.176,0 0.32,0.144 0.32,0.32 0,0.176 -0.144,0.32 -0.32,0.32 -0.176,0 -0.32,-0.144 -0.32,-0.32 z m 16.64,0 c 0,-0.176 0.144,-0.32 0.32,-0.32 0.176,0 0.32,0.144 0.32,0.32 0,0.176 -0.144,0.32 -0.32,0.32 -0.176,0 -0.32,-0.144 -0.32,-0.32 z m 1.799555,-0.064 c 0.08702,-0.1408 0.581719,-0.256 1.099331,-0.256 0.517613,0 0.941114,0.1152 0.941114,0.256 0,0.1408 -0.494698,0.256 -1.099331,0.256 -0.604634,0 -1.028135,-0.1152 -0.941114,-0.256 z M 69.567165,26.24 c 0,-2.552 0.0497,-3.596 0.110438,-2.32 0.06074,1.276 0.06074,3.364 0,4.64 -0.06074,1.276 -0.110438,0.232 -0.110438,-2.32 z m 2.252905,-4 c -1.72e-4,-4.752 0.04436,-6.740609 0.09896,-4.419132 0.0546,2.321478 0.05474,6.209478 3.1e-4,8.64 C 71.864915,28.891391 71.82024,26.992 71.82007,22.24 Z M 47.385264,22.21333 c 0.01536,-0.372781 0.09118,-0.448608 0.193331,-0.193333 0.09244,0.231 0.08107,0.507 -0.02525,0.613333 -0.106336,0.106334 -0.181965,-0.08267 -0.16807,-0.42 z"
         id="path2867" />
      <path
         style="fill:#8c8c8c;fill-opacity:1;stroke-width:0.32"
         d="M 36.552016,44.27617 C 36.572752,43.948275 36.492266,43.32 36.373168,42.88 c -0.21088,-0.779085 -0.206893,-0.78127 0.152464,-0.08355 0.345878,0.671555 0.397088,0.681581 0.817178,0.16 0.291577,-0.362025 0.260825,-0.16512 -0.08802,0.563549 -0.675572,1.411149 -0.749194,1.490365 -0.702778,0.75617 z m 2.061318,0.310496 C 38.200285,44.173619 38.406406,42.953517 38.96,42.534614 c 0.476406,-0.360496 0.500291,-0.35679 0.16,0.02483 -0.22,0.246711 -0.4,0.767767 -0.4,1.157901 0,0.390131 0.18,0.781965 0.4,0.870736 0.223306,0.09011 0.246864,0.172563 0.05333,0.186666 -0.190668,0.01389 -0.442668,-0.07074 -0.56,-0.188071 z m 1.523808,-0.289524 C 40.784205,43.65008 40.771418,43.23865 40.08,42.458634 39.536598,41.8456 39.541341,41.838074 40.24,42.204694 41.306477,42.764333 41.050102,44.8 39.913142,44.8 c -0.153369,0 -0.05257,-0.226285 0.224,-0.502858 z m 1.676192,0.289524 c -0.31071,-0.310708 -0.252051,-1.47057 0.102496,-2.026666 0.210007,-0.329389 0.245536,-0.103472 0.113232,0.72 -0.247843,1.542592 1.017188,1.841824 1.352832,0.32 0.308036,-1.396646 0.405789,-1.572566 0.432842,-0.778963 0.04995,1.465293 -1.199488,2.567545 -2.001402,1.765629 z M 44.530525,44.16 c 0,-0.44 0.07263,-0.62 0.161405,-0.4 0.08877,0.22 0.08877,0.58 0,0.8 -0.08877,0.22 -0.161405,0.04 -0.161405,-0.4 z m 1.231158,-0.315933 C 45.543907,43.318304 45.238435,42.966803 45.082861,43.062954 44.927286,43.159104 44.8,42.995642 44.8,42.699702 c 0,-0.725568 0.844957,-0.04578 1.154957,0.929197 0.215085,0.676464 0.22504,0.677546 0.469901,0.0511 0.216896,-0.554896 0.253152,-0.522982 0.272649,0.24 0.02963,1.158899 -0.440125,1.120784 -0.935824,-0.07593 z m 2.042967,0.499207 c -0.286765,-0.747306 2.72e-4,-1.882544 0.51535,-2.038208 0.387379,-0.117072 0.402816,-0.06325 0.08,0.278934 -0.22,0.2332 -0.4,0.7432 -0.4,1.133334 0,0.390132 0.18,0.781965 0.4,0.870736 0.313299,0.12642 0.311123,0.16688 -0.01005,0.186666 -0.225526,0.01389 -0.488912,-0.180262 -0.585309,-0.431462 z M 49.097142,44.16 c 0,-0.352 0.113143,-0.64 0.251431,-0.64 0.138285,0 0.251427,0.288 0.251427,0.64 0,0.352 -0.113142,0.64 -0.251427,0.64 -0.138288,0 -0.251431,-0.288 -0.251431,-0.64 z m 2.322765,-0.48 C 51.637779,42.217459 51.84,41.806688 51.84,42.826666 c 0,0.402963 0.201027,0.693334 0.48,0.693334 0.281213,0 0.48,-0.291555 0.48,-0.704 0,-0.533235 0.08985,-0.614147 0.370438,-0.333562 0.402698,0.402698 -0.141945,1.357562 -0.774342,1.357562 -0.179046,0 -0.514838,0.252 -0.746205,0.56 -0.363389,0.483754 -0.394701,0.385722 -0.229984,-0.72 z m 2.4584,0.4 c 0.106125,-0.396 0.20504,-1.008 0.219815,-1.36 l 0.02685,-0.64 0.257305,0.64 c 0.14152,0.352 0.136464,0.873066 -0.01123,1.157926 -0.147696,0.284858 -0.177606,0.608858 -0.06646,0.72 C 54.415722,44.709066 54.321859,44.8 54.096,44.8 c -0.269706,0 -0.344429,-0.247133 -0.217706,-0.72 z m 2.246301,-0.107085 c -0.14279,-0.568918 -0.03771,-0.993427 0.336656,-1.36 0.510918,-0.500285 0.520374,-0.479616 0.154442,0.33761 -0.309495,0.691181 -0.306109,0.971363 0.01642,1.36 0.269548,0.324784 0.28743,0.489475 0.05315,0.489475 -0.194198,0 -0.446499,-0.372189 -0.560672,-0.827085 z m 1.621098,0.397107 c 0.405904,-0.296803 0.538275,-0.690246 0.427388,-1.270316 -0.08835,-0.462186 -0.03744,-0.764199 0.113133,-0.671136 0.708832,0.438083 0.04734,2.37143 -0.811389,2.37143 -0.174438,0 -0.05255,-0.193491 0.270868,-0.429978 z M 59.412899,43.68 C 59.631965,42.219584 59.84,41.803939 59.84,42.826666 c 0,0.919443 0.876205,0.897276 1.054166,-0.02666 l 0.138679,-0.72 0.04358,0.72792 c 0.02973,0.496428 -0.200166,0.820592 -0.722864,1.019321 -0.421539,0.160269 -0.848838,0.480704 -0.949552,0.71208 -0.10071,0.231373 -0.09671,-0.155321 0.0089,-0.859321 z m 2.378999,0.56 c 0.01754,-0.308 0.158435,-0.92 0.313094,-1.36 0.227082,-0.646042 0.249859,-0.573936 0.118355,0.374659 -0.130457,0.941066 -0.04954,1.204135 0.406906,1.32288 C 63.070912,44.692176 63.03687,44.73417 62.48,44.76288 61.982685,44.788512 61.769866,44.6268 61.791898,44.24 Z M 64,43.52 c 0,-0.704 0.108,-1.280006 0.24,-1.280013 0.132,-6e-6 0.24,0.575959 0.24,1.279923 0,0.703965 -0.108,1.279972 -0.24,1.280013 C 64.108,44.799965 64,44.224 64,43.52 Z m 3.176022,-0.08 c 0.09398,-0.83576 0.198336,-1.082461 0.270714,-0.64 0.147552,0.902026 1.033264,0.954413 1.033264,0.06111 0,-0.362388 0.14439,-0.569648 0.320864,-0.46058 0.21215,0.131117 0.203802,0.417044 -0.02464,0.843892 -0.190029,0.355072 -0.262064,0.886332 -0.16008,1.180579 0.163005,0.470307 0.132701,0.467283 -0.250637,-0.02499 C 67.830707,43.7132 67.52,43.683802 67.52,44.32 c 0,0.264 -0.111805,0.48 -0.248458,0.48 -0.136649,0 -0.179635,-0.612 -0.09552,-1.36 z M 69.76,43.573334 C 69.76,42.84 69.884147,42.24 70.035885,42.24 c 0.270349,0 0.154198,2.236586 -0.13096,2.521741 C 69.825216,44.84145 69.76,44.306666 69.76,43.573334 Z M 71.855277,44.4 c 0.117257,-0.308 0.485789,-0.56 0.81896,-0.56 0.398217,0 0.605763,-0.225747 0.605763,-0.658886 0,-0.362388 -0.144,-0.569888 -0.32,-0.461114 -0.176,0.108774 -0.32,0.04527 -0.32,-0.141114 0,-1.17352 0.823933,-0.210166 1.078602,1.261114 0.106627,0.616 0.111561,0.94 0.01098,0.72 -0.100596,-0.22 -0.430103,-0.4 -0.732234,-0.4 -0.302134,0 -0.730666,0.18 -0.952294,0.4 -0.323092,0.32072 -0.360701,0.289008 -0.189764,-0.16 z m 2.969878,-0.88 c 0.06714,-0.704 0.218749,-1.28 0.336912,-1.28 0.118167,0 0.159914,0.576 0.09278,1.28 -0.06714,0.704 -0.218749,1.28 -0.336912,1.28 -0.118167,0 -0.159914,-0.576 -0.09278,-1.28 z m 1.079808,1.06231 c 0.718304,-0.189075 1.048528,-1.291788 0.562291,-1.877667 C 76.183763,42.363056 76.179421,42.24 76.450861,42.24 c 0.580649,0 0.787577,0.92552 0.398067,1.780406 -0.196454,0.431172 -0.608554,0.763005 -0.922067,0.742474 -0.514698,-0.03371 -0.516711,-0.05032 -0.02189,-0.18057 z M 49.122266,42.243664 c -0.112109,-0.181395 0.01635,-0.23504 0.301113,-0.125763 0.554375,0.212733 0.655805,0.442099 0.195507,0.442099 -0.165612,0 -0.389094,-0.142352 -0.49662,-0.316336 z M 34.124,39.02 c -0.344349,-1.721744 -0.200144,-2.128061 0.278358,-0.784314 0.249847,0.701629 0.335325,1.394631 0.189956,1.54 C 34.446941,39.921059 34.236202,39.580998 34.124,39.02 Z m 1.925802,0.514394 c -0.115389,-0.300704 -0.19968,-0.78696 -0.187309,-1.080567 0.01776,-0.421958 0.07629,-0.399709 0.279209,0.106173 0.231274,0.576566 0.30801,0.528989 0.774208,-0.48 0.324932,-0.703242 0.444343,-0.822314 0.320909,-0.32 -0.378435,1.540022 -0.949421,2.393555 -1.187017,1.774394 z M 38.116797,39.04 c -0.01485,-0.616 0.112592,-1.336 0.283203,-1.6 0.389859,-0.603264 0.389859,0.702662 0,1.92 -0.234752,0.733018 -0.258464,0.706224 -0.283203,-0.32 z m 1.886406,0.32 c -0.08948,-0.930886 0.0032,-2.02183 0.188087,-2.213334 0.306281,-0.317284 0.350956,0.231632 0.128051,1.573334 -0.157466,0.947811 -0.26552,1.166563 -0.316138,0.64 z M 40.96,39.880586 c 0,-0.450023 1.299491,-2.760586 1.552592,-2.760586 0.142771,0 0.407866,0.648 0.589101,1.44 0.181235,0.792 0.223901,1.44 0.09481,1.44 -0.129092,0 -0.335008,-0.612 -0.457597,-1.36 l -0.222887,-1.36 -0.614406,1.249728 C 41.261088,39.832586 40.96,40.264534 40.96,39.880586 Z m 3.561334,-1.248791 C 44.564374,37.800307 44.718384,37.12 44.863578,37.12 c 0.250643,0 -0.004,2.551491 -0.28657,2.871795 -0.07366,0.08348 -0.09871,-0.528515 -0.05567,-1.36 z m 3.2,0 C 47.764374,37.800307 47.918384,37.12 48.063578,37.12 c 0.250643,0 -0.004,2.551491 -0.28657,2.871795 -0.07366,0.08348 -0.09871,-0.528515 -0.05567,-1.36 z M 49.636797,39.04 c -0.01485,-0.616 0.112592,-1.336 0.283203,-1.6 0.389859,-0.603264 0.389859,0.702662 0,1.92 -0.234752,0.733018 -0.258464,0.706224 -0.283203,-0.32 z m 1.76664,0.08 c 0.03551,-0.484 0.07627,-1.132 0.09057,-1.44 0.0143,-0.308 0.135034,-0.56 0.268304,-0.56 0.133267,0 0.190768,0.648 0.127776,1.44 C 51.827094,39.352 51.677302,40 51.55721,40 51.43712,40 51.367923,39.604 51.403437,39.12 Z M 52.8,38.738886 c 0,-0.693612 0.143725,-1.349942 0.319386,-1.458508 0.201507,-0.124535 0.260211,0.273612 0.159049,1.078736 -0.14207,1.130732 -0.0782,1.291939 0.560615,1.414928 0.619305,0.119232 0.596883,0.144947 -0.15905,0.18238 -0.818509,0.04053 -0.88,-0.04454 -0.88,-1.217536 z m 3.2,0.974621 c 0,-0.183382 0.201434,-0.256125 0.447632,-0.161648 0.75937,0.291399 0.919091,-0.498217 0.218621,-1.0808 -0.48577,-0.404016 -0.578979,-0.679142 -0.349312,-1.031059 0.26984,-0.413472 0.313939,-0.404586 0.31816,0.0641 0.0026,0.299255 0.256899,0.687565 0.564899,0.862909 0.444909,0.253286 0.487184,0.437414 0.205702,0.895901 C 57.010032,39.907386 56,40.231152 56,39.713507 Z m 2.265264,-0.220173 c 0.01536,-0.372784 0.09118,-0.448608 0.193331,-0.193334 0.09244,0.230998 0.08107,0.506998 -0.02525,0.613334 -0.106336,0.106333 -0.181965,-0.08267 -0.16807,-0.42 z m 3.837341,0.433143 c -0.102013,-1.053907 1.303987,-3.187747 1.689459,-2.564039 0.283347,0.458464 0.612656,2.797389 0.360589,2.561095 -0.138739,-0.130055 -0.351527,-0.778055 -0.472864,-1.44 L 63.459174,37.28 62.792192,38.72 c -0.366842,0.792 -0.677155,1.334915 -0.689587,1.206477 z M 65.229917,38.56 c 0.06299,-0.792 0.230547,-1.44 0.372345,-1.44 0.141802,0 0.178711,0.302525 0.08202,0.672278 -0.139248,0.532487 -0.04984,0.646381 0.429959,0.547738 0.353033,-0.07258 0.584848,-0.367299 0.555629,-0.70641 -0.03544,-0.411347 0.04968,-0.482064 0.290438,-0.241302 0.240762,0.240762 0.235933,0.466653 -0.01648,0.770784 -0.196374,0.236618 -0.287312,0.782723 -0.20208,1.213565 L 66.89671,40.16 66.519453,39.44 C 66.052029,38.54791 65.6,38.508579 65.6,39.36 65.6,39.712 65.490963,40 65.357693,40 65.224426,40 65.166925,39.352 65.229917,38.56 Z m 3.2,0 c 0.06299,-0.792 0.209065,-1.44 0.324611,-1.44 0.115546,0 0.158547,0.648 0.09556,1.44 -0.06299,0.792 -0.209065,1.44 -0.324611,1.44 -0.115546,0 -0.158547,-0.648 -0.09555,-1.44 z m 1.92,0 c 0.06299,-0.792 0.217859,-1.44 0.344157,-1.44 0.126294,0 0.184883,0.565651 0.130192,1.257002 -0.0774,0.978403 0.02416,1.289334 0.45815,1.40288 0.374061,0.09786 0.29351,0.158096 -0.244723,0.182998 C 70.278822,39.99799 70.241587,39.92204 70.349917,38.56 Z M 72.64,39.713507 c 0,-0.183382 0.201434,-0.256125 0.447632,-0.161648 0.75937,0.291399 0.919091,-0.498217 0.218621,-1.0808 -0.48577,-0.404016 -0.578979,-0.679142 -0.349312,-1.031059 0.26984,-0.413472 0.313939,-0.404586 0.31816,0.0641 0.0026,0.299255 0.256899,0.687565 0.564899,0.862909 0.444909,0.253286 0.487184,0.437414 0.205702,0.895901 C 73.650032,39.907386 72.64,40.231152 72.64,39.713507 Z m 2.972093,-1.110038 c 0.03927,-0.855373 0.222227,-1.479955 0.433891,-1.481242 0.264829,-0.0016 0.282093,0.371146 0.06247,1.34864 -0.415094,1.847443 -0.577081,1.890717 -0.496358,0.132602 z M 59.314256,38.491664 c -0.19719,-0.785658 -0.241331,-0.808509 -0.463606,-0.24 C 58.641379,38.786909 58.601651,38.749626 58.582493,38 c -0.03078,-1.204147 0.382582,-1.104122 0.991814,0.24 0.27921,0.616 0.383955,1.12 0.232768,1.12 -0.151184,0 -0.372953,-0.390752 -0.492819,-0.868336 z m 1.805744,0.0072 c 0,-0.832 -0.01686,-0.840124 -0.497654,-0.24 -0.480285,0.599485 -0.485808,0.596656 -0.158279,-0.08102 0.575379,-1.190483 0.975933,-1.172714 0.975933,0.04329 0,0.626387 -0.072,1.138886 -0.16,1.138886 -0.088,0 -0.16,-0.387523 -0.16,-0.861162 z M 35.2,37.79777 c 0,-0.176 0.144,-0.408996 0.32,-0.51777 0.176,-0.108774 0.32,-0.05377 0.32,0.12223 0,0.176 -0.144,0.408996 -0.32,0.51777 -0.176,0.108774 -0.32,0.05377 -0.32,-0.12223 z M 110.20716,26.24 c 0,-2.552 0.0497,-3.596 0.11044,-2.32 0.0607,1.276 0.0607,3.364 0,4.64 -0.0607,1.276 -0.11044,0.232 -0.11044,-2.32 z M 4.7591824,29.84 C 4.3611437,29.332462 4.3724621,29.321144 4.88,29.719182 5.4130394,30.13722 5.5825533,30.4 5.3191824,30.4 c -0.06645,0 -0.3184499,-0.252 -0.56,-0.56 z M 74.5,9.0614035 c 0.230998,-0.092439 0.506998,-0.08107 0.613334,0.025264 0.106333,0.1063335 -0.08267,0.1819651 -0.42,0.1680704 C 74.32055,9.2393843 74.244726,9.1635568 74.5,9.0614045 Z m 8.32,0 c 0.230998,-0.092439 0.507002,-0.08107 0.613334,0.025264 0.106333,0.1063335 -0.08267,0.1819651 -0.42,0.1680704 C 82.64055,9.2393843 82.564726,9.1635568 82.82,9.0614035 Z"
         id="path2865" />
      <path
           d="m 95.065264,38.533334 c 0.01536,-0.372784 0.09118,-0.448608 0.193331,-0.193334 0.09244,0.230998 0.08107,0.506998 -0.02525,0.613334 -0.106333,0.106333 -0.181965,-0.08267 -0.16807,-0.42 z M 45.582042,21.12 c 0,-5.368 0.04379,-7.564 0.09731,-4.88 0.05352,2.684 0.05352,7.076 0,9.76 -0.05352,2.684 -0.09731,0.488 -0.09731,-4.88 z"
         id="path2863" />
      <path
         d="M 91.911203,40.141856 C 91.014605,39.513853 90.94447,37.770445 91.785197,37.009597 93.125763,35.7964 95.04,36.759434 95.04,38.647053 95.04,39.677834 94.11305,40.64 93.12,40.64 c -0.273677,0 -0.817638,-0.224166 -1.208797,-0.498144 z M 98,40.15136 c -1.424874,-1.004621 -0.416742,-3.860698 1.274611,-3.611027 1.032719,0.152445 1.050209,0.838957 0.02435,0.956592 -0.762617,0.08745 -0.898973,0.248697 -0.898973,1.063085 0,0.814387 0.136356,0.975635 0.898973,1.063084 0.514163,0.05896 0.845879,0.264426 0.774939,0.48 -0.192385,0.584596 -1.277412,0.609847 -2.073912,0.04827 z m 3.50034,-0.163818 C 100.62685,39.17376 100.60129,37.958714 101.44,37.12 c 0.89307,-0.893069 2.05975,-0.810102 2.85677,0.203155 1.56223,1.986042 -0.95263,4.382141 -2.79643,2.664378 z m 2.20192,-0.814355 c 0.56948,-0.686185 -0.004,-1.573177 -1.01714,-1.573177 -0.56296,0 -0.79365,0.201808 -0.87312,0.763811 -0.17092,1.208883 1.10521,1.755296 1.89026,0.809366 z m 2.10237,1.244791 C 105.69209,40.305418 105.6,39.373334 105.6,38.346666 105.6,36.29736 106.08523,35.89008 106.96612,37.2 l 0.48419,0.72 0.77547,-0.72 c 1.13705,-1.055718 1.25452,-0.924915 1.14949,1.28 -0.10048,2.109389 -0.66409,2.741562 -0.83712,0.938947 -0.0844,-0.879597 -0.18019,-0.996025 -0.56,-0.680816 -0.35481,0.294471 -0.56642,0.290381 -0.93815,-0.01814 -0.4089,-0.339357 -0.48,-0.253161 -0.48,0.581933 0,0.972934 -0.36265,1.508746 -0.75537,1.116035 z M 80.138736,30.24 c -1.95e-4,-4.4 0.04487,-6.244383 0.100154,-4.098629 0.05528,2.145754 0.05544,5.745754 3.2e-4,7.999999 C 80.18416,36.395616 80.138931,34.64 80.138736,30.24 Z M 74.5,33.061405 c 0.230998,-0.09244 0.506998,-0.08107 0.613334,0.02525 0.106333,0.106336 -0.08267,0.181965 -0.42,0.16807 C 74.32055,33.239363 74.244726,33.163542 74.5,33.061392 Z M 104.44626,26.4 c 6.4e-4,-2.464 0.0507,-3.4297 0.11162,-2.146 0.0609,1.2837 0.0605,3.2997 -9.6e-4,4.48 -0.0613,1.1803 -0.11116,0.13 -0.11066,-2.334 z M 23.422384,22.24 c 0.0065,-0.528 0.07824,-0.70526 0.159373,-0.39391 0.08113,0.31135 0.0758,0.74335 -0.01186,0.96 C 23.482244,23.02274 23.415862,22.768 23.422384,22.24 Z M 7.4862582,18.08 c 5.12e-4,-2.464 0.050731,-3.4297 0.1116266,-2.146 0.060895,1.2837 0.060487,3.2997 -8.96e-4,4.48 -0.061406,1.1803 -0.1112298,0.13 -0.1107306,-2.334 z"
         id="path2861" />
      <path
     d="m 80.113587,40.8 c -9.6e-4,-1.584 0.05314,-2.272346 0.120247,-1.529654 0.06711,0.742688 0.06791,2.038688 0.0019,2.88 C 80.169619,42.991654 80.114707,42.384 80.113734,40.8 Z M 15.476874,36 c 8.32e-4,-1.76 0.05457,-2.439174 0.119415,-1.509274 0.06485,0.929901 0.06416,2.369901 -0.0015,3.2 C 15.529096,38.520826 15.476041,37.76 15.476874,36 Z m 48.329385,-9.6 c 6.4e-4,-2.464 0.05073,-3.4297 0.111626,-2.146 0.0609,1.2837 0.06049,3.2997 -9.6e-4,4.48 -0.06134,1.1803 -0.111165,0.13 -0.110666,-2.334 z M 77.58007,22.24 c -1.72e-4,-4.752 0.04436,-6.740609 0.09896,-4.419132 0.0546,2.321478 0.05474,6.209478 3.1e-4,8.64 C 77.624915,28.891391 77.58024,26.992 77.58007,22.24 Z m 2.533517,-2.56 c -9.6e-4,-1.584 0.05314,-2.272345 0.120247,-1.529655 0.06711,0.742689 0.06791,2.038689 0.0019,2.88 C 80.169472,21.871655 80.11456,21.264 80.113587,19.68 Z"
         id="path2859" />
      <path
       d="M 81.256477,48.392202 80.262858,47.5044 V 30.283238 13.062075 l 0.708758,-0.754439 c 1.506406,-1.603495 4.057341,-1.147156 4.75369,0.850392 0.5864,1.682146 0.486505,32.947057 -0.109828,34.374286 -0.786307,1.8819 -2.775907,2.27438 -4.359001,0.859888 z M 10.583226,40.436845 C 10.005857,39.702842 9.92,39.149226 9.92,36.16032 V 32.72695 L 8.4889914,32.180442 C 3.749201,30.3703 2.1166986,27.118958 1.9713088,19.19963 1.8418746,12.149392 2.0624936,11.52 4.6632256,11.52 c 2.4895235,0 2.6964643,0.460115 2.698559,6 0.00262,6.97952 1.1078458,9.327315 4.6401134,9.857011 5.679266,0.851659 7.988503,-6.188303 3.212648,-9.794109 -4.458078,-3.365881 -2.173404,-8.0452543 2.570634,-5.265064 7.757318,4.546092 7.383058,15.989897 -0.647284,19.792085 L 15.36,32.951715 v 3.524144 c 0,4.710538 -2.534208,6.811949 -4.776774,3.960986 z M 26.886307,32.881968 C 25.367333,32.088544 25.28976,31.532785 25.284717,21.407751 25.278945,9.816416 25.410463,9.28 28.258208,9.28 c 1.302257,0 1.664228,0.3651936 7.581792,7.649303 l 4,4.923722 L 40,16.177416 C 40.193866,9.3005258 41.510227,7.5152909 44.596845,9.9432256 L 45.44,10.606451 v 10.397812 c 0,11.0031 -0.0538,11.428707 -1.51505,11.984271 -1.823715,0.693376 -2.392828,0.234314 -7.688611,-6.201805 L 31.2,20.665917 31.04,26.164961 c -0.191537,6.582946 -1.221546,8.248591 -4.153693,6.717007 z M 56.11,32.962218 C 46.476736,30.944293 44.65417,16.962197 53.440128,12.479935 c 4.766691,-2.431785 11.221901,-0.854297 14.064307,3.436956 3.405667,5.141617 2.770458,17.188565 -0.906317,17.188565 -2.280796,0 -2.412992,-0.335683 -2.613248,-6.6358 -0.248454,-7.81663 -1.942524,-10.234174 -6.563961,-9.367187 -5.803386,1.088721 -5.151911,9.445136 0.809827,10.38756 2.258099,0.356958 3.366198,1.498923 3.092291,3.186804 -0.345923,2.131692 -2.156816,2.925583 -5.213027,2.285385 z M 96.407555,32.83601 C 86.661011,30.38275 85.488451,16.450896 94.672653,12.222618 c 3.913363,-1.801659 9.146277,-0.883686 12.163767,2.133801 4.19722,4.197226 4.9179,17.903853 0.98675,18.767277 -2.58924,0.568694 -3.18114,-0.609213 -3.19081,-6.349868 -0.0131,-7.786248 -1.88251,-10.55101 -6.542939,-9.676708 -5.793808,1.086925 -5.164871,9.452943 0.781315,10.392909 2.901984,0.458743 4.129964,2.763904 2.488764,4.671913 -0.88893,1.03344 -2.599257,1.266253 -4.951945,0.674068 z M 72.663226,32.116845 C 71.836592,31.065951 71.633891,13.46867 72.436256,12.412581 73.403706,11.139199 75.652298,10.96814 76.88,12.074528 c 0.971027,0.875075 0.84311,19.316783 -0.140339,20.233005 -1.073485,1.000102 -3.218695,0.899753 -4.076435,-0.190688 z M 72.995222,8.5134378 C 71.346877,7.5998304 70.826202,4.9249242 72.005005,3.42632 73.596845,1.4026216 76.670979,1.7953103 77.833306,4.1708246 79.30176,7.171992 75.970218,10.16235 72.995222,8.5134378 Z M 80.768,7.872 C 78.838221,5.9422211 79.506006,3.0894949 82.086909,2.2377203 84.532272,1.4306769 87.209322,4.107727 86.402278,6.5530925 85.550506,9.1339949 82.697779,9.8017789 80.768,7.872 Z"
         id="path2857" />
    </g>
  </g>
</svg>
